<?xml version="1.0" encoding="utf-8" standalone="no"?>
<!DOCTYPE svg PUBLIC "-//W3C//DTD SVG 1.1//EN"
  "http://www.w3.org/Graphics/SVG/1.1/DTD/svg11.dtd">
<svg xmlns:xlink="http://www.w3.org/1999/xlink" width="460.8pt" height="345.6pt" viewBox="0 0 460.8 345.6" xmlns="http://www.w3.org/2000/svg" version="1.1">
 <metadata>
  <rdf:RDF xmlns:dc="http://purl.org/dc/elements/1.1/" xmlns:cc="http://creativecommons.org/ns#" xmlns:rdf="http://www.w3.org/1999/02/22-rdf-syntax-ns#">
   <cc:Work>
    <dc:type rdf:resource="http://purl.org/dc/dcmitype/StillImage"/>
    <dc:date>2024-03-18T20:09:30.537790</dc:date>
    <dc:format>image/svg+xml</dc:format>
    <dc:creator>
     <cc:Agent>
      <dc:title>Matplotlib v3.8.0, https://matplotlib.org/</dc:title>
     </cc:Agent>
    </dc:creator>
   </cc:Work>
  </rdf:RDF>
 </metadata>
 <defs>
  <style type="text/css">*{stroke-linejoin: round; stroke-linecap: butt}</style>
 </defs>
 <g id="figure_1">
  <g id="axes_1">
   <g id="text_1">
    <path d="M 65.702542 185.569882 
L 65.702542 186.164882 
Q 65.436761 186.028163 65.149105 185.96035 
Q 64.862542 185.891444 64.554105 185.891444 
Q 64.08598 185.891444 63.851917 186.034725 
Q 63.617855 186.178007 63.617855 186.465663 
Q 63.617855 186.684413 63.785198 186.8091 
Q 63.952542 186.933788 64.458948 187.046444 
L 64.674417 187.094569 
Q 65.343792 187.23785 65.62598 187.499257 
Q 65.908167 187.760663 65.908167 188.228788 
Q 65.908167 188.762538 65.48598 189.074257 
Q 65.063792 189.384882 64.325511 189.384882 
Q 64.018167 189.384882 63.684573 189.324725 
Q 63.35098 189.264569 62.982386 189.14535 
L 62.982386 188.495663 
Q 63.331292 188.677225 63.669261 188.768007 
Q 64.00723 188.857694 64.33973 188.857694 
Q 64.783792 188.857694 65.02223 188.705663 
Q 65.261761 188.553632 65.261761 188.276913 
Q 65.261761 188.020975 65.088948 187.884257 
Q 64.91723 187.747538 64.332073 187.620663 
L 64.113323 187.569257 
Q 63.529261 187.446757 63.268948 187.191913 
Q 63.00973 186.937069 63.00973 186.493007 
Q 63.00973 185.952694 63.392542 185.659569 
Q 63.775355 185.36535 64.47973 185.36535 
Q 64.827542 185.36535 65.134886 185.416757 
Q 65.443323 185.467069 65.702542 185.569882 
z
M 69.889827 186.192225 
Q 70.126077 185.76785 70.454202 185.5666 
Q 70.782327 185.36535 71.22639 185.36535 
Q 71.824671 185.36535 72.149515 185.784257 
Q 72.474358 186.202069 72.474358 186.974257 
L 72.474358 189.28535 
L 71.842171 189.28535 
L 71.842171 186.995038 
Q 71.842171 186.444882 71.64639 186.1791 
Q 71.451702 185.912225 71.052483 185.912225 
Q 70.563577 185.912225 70.279202 186.237069 
Q 69.995921 186.560819 69.995921 187.121913 
L 69.995921 189.28535 
L 69.363733 189.28535 
L 69.363733 186.995038 
Q 69.363733 186.4416 69.169046 186.176913 
Q 68.974358 185.912225 68.567483 185.912225 
Q 68.08514 185.912225 67.800765 186.238163 
Q 67.517483 186.5641 67.517483 187.121913 
L 67.517483 189.28535 
L 66.885296 189.28535 
L 66.885296 185.457225 
L 67.517483 185.457225 
L 67.517483 186.052225 
Q 67.732952 185.700038 68.033733 185.532694 
Q 68.334515 185.36535 68.747952 185.36535 
Q 69.165765 185.36535 69.457796 185.577538 
Q 69.749827 185.788632 69.889827 186.192225 
z
M 75.468362 187.361444 
Q 74.706019 187.361444 74.4118 187.53535 
Q 74.117581 187.709257 74.117581 188.13035 
Q 74.117581 188.465038 74.338519 188.661913 
Q 74.559456 188.857694 74.937894 188.857694 
Q 75.4618 188.857694 75.777894 188.486913 
Q 76.093987 188.116132 76.093987 187.501444 
L 76.093987 187.361444 
L 75.468362 187.361444 
z
M 76.722894 187.101132 
L 76.722894 189.28535 
L 76.093987 189.28535 
L 76.093987 188.704569 
Q 75.878519 189.052382 75.556956 189.218632 
Q 75.235394 189.384882 74.77055 189.384882 
Q 74.183206 189.384882 73.835394 189.054569 
Q 73.488675 188.724257 73.488675 188.170819 
Q 73.488675 187.525507 73.920706 187.197382 
Q 74.353831 186.869257 75.211331 186.869257 
L 76.093987 186.869257 
L 76.093987 186.806913 
Q 76.093987 186.372694 75.808519 186.13535 
Q 75.52305 185.898007 75.0068 185.898007 
Q 74.678675 185.898007 74.366956 185.976757 
Q 74.056331 186.055507 73.769769 186.213007 
L 73.769769 185.631132 
Q 74.1143 185.497694 74.439144 185.432069 
Q 74.763987 185.36535 75.071331 185.36535 
Q 75.902581 185.36535 76.312737 185.796288 
Q 76.722894 186.226132 76.722894 187.101132 
z
M 78.017757 183.966444 
L 78.646663 183.966444 
L 78.646663 189.28535 
L 78.017757 189.28535 
L 78.017757 183.966444 
z
M 79.962581 183.966444 
L 80.591487 183.966444 
L 80.591487 189.28535 
L 79.962581 189.28535 
L 79.962581 183.966444 
z
" style="fill: #ffffff; stroke: #000000; stroke-width: 1.4"/>
    <path d="M 65.702542 185.569882 
L 65.702542 186.164882 
Q 65.436761 186.028163 65.149105 185.96035 
Q 64.862542 185.891444 64.554105 185.891444 
Q 64.08598 185.891444 63.851917 186.034725 
Q 63.617855 186.178007 63.617855 186.465663 
Q 63.617855 186.684413 63.785198 186.8091 
Q 63.952542 186.933788 64.458948 187.046444 
L 64.674417 187.094569 
Q 65.343792 187.23785 65.62598 187.499257 
Q 65.908167 187.760663 65.908167 188.228788 
Q 65.908167 188.762538 65.48598 189.074257 
Q 65.063792 189.384882 64.325511 189.384882 
Q 64.018167 189.384882 63.684573 189.324725 
Q 63.35098 189.264569 62.982386 189.14535 
L 62.982386 188.495663 
Q 63.331292 188.677225 63.669261 188.768007 
Q 64.00723 188.857694 64.33973 188.857694 
Q 64.783792 188.857694 65.02223 188.705663 
Q 65.261761 188.553632 65.261761 188.276913 
Q 65.261761 188.020975 65.088948 187.884257 
Q 64.91723 187.747538 64.332073 187.620663 
L 64.113323 187.569257 
Q 63.529261 187.446757 63.268948 187.191913 
Q 63.00973 186.937069 63.00973 186.493007 
Q 63.00973 185.952694 63.392542 185.659569 
Q 63.775355 185.36535 64.47973 185.36535 
Q 64.827542 185.36535 65.134886 185.416757 
Q 65.443323 185.467069 65.702542 185.569882 
z
M 69.889827 186.192225 
Q 70.126077 185.76785 70.454202 185.5666 
Q 70.782327 185.36535 71.22639 185.36535 
Q 71.824671 185.36535 72.149515 185.784257 
Q 72.474358 186.202069 72.474358 186.974257 
L 72.474358 189.28535 
L 71.842171 189.28535 
L 71.842171 186.995038 
Q 71.842171 186.444882 71.64639 186.1791 
Q 71.451702 185.912225 71.052483 185.912225 
Q 70.563577 185.912225 70.279202 186.237069 
Q 69.995921 186.560819 69.995921 187.121913 
L 69.995921 189.28535 
L 69.363733 189.28535 
L 69.363733 186.995038 
Q 69.363733 186.4416 69.169046 186.176913 
Q 68.974358 185.912225 68.567483 185.912225 
Q 68.08514 185.912225 67.800765 186.238163 
Q 67.517483 186.5641 67.517483 187.121913 
L 67.517483 189.28535 
L 66.885296 189.28535 
L 66.885296 185.457225 
L 67.517483 185.457225 
L 67.517483 186.052225 
Q 67.732952 185.700038 68.033733 185.532694 
Q 68.334515 185.36535 68.747952 185.36535 
Q 69.165765 185.36535 69.457796 185.577538 
Q 69.749827 185.788632 69.889827 186.192225 
z
M 75.468362 187.361444 
Q 74.706019 187.361444 74.4118 187.53535 
Q 74.117581 187.709257 74.117581 188.13035 
Q 74.117581 188.465038 74.338519 188.661913 
Q 74.559456 188.857694 74.937894 188.857694 
Q 75.4618 188.857694 75.777894 188.486913 
Q 76.093987 188.116132 76.093987 187.501444 
L 76.093987 187.361444 
L 75.468362 187.361444 
z
M 76.722894 187.101132 
L 76.722894 189.28535 
L 76.093987 189.28535 
L 76.093987 188.704569 
Q 75.878519 189.052382 75.556956 189.218632 
Q 75.235394 189.384882 74.77055 189.384882 
Q 74.183206 189.384882 73.835394 189.054569 
Q 73.488675 188.724257 73.488675 188.170819 
Q 73.488675 187.525507 73.920706 187.197382 
Q 74.353831 186.869257 75.211331 186.869257 
L 76.093987 186.869257 
L 76.093987 186.806913 
Q 76.093987 186.372694 75.808519 186.13535 
Q 75.52305 185.898007 75.0068 185.898007 
Q 74.678675 185.898007 74.366956 185.976757 
Q 74.056331 186.055507 73.769769 186.213007 
L 73.769769 185.631132 
Q 74.1143 185.497694 74.439144 185.432069 
Q 74.763987 185.36535 75.071331 185.36535 
Q 75.902581 185.36535 76.312737 185.796288 
Q 76.722894 186.226132 76.722894 187.101132 
z
M 78.017757 183.966444 
L 78.646663 183.966444 
L 78.646663 189.28535 
L 78.017757 189.28535 
L 78.017757 183.966444 
z
M 79.962581 183.966444 
L 80.591487 183.966444 
L 80.591487 189.28535 
L 79.962581 189.28535 
L 79.962581 183.966444 
z
" style="fill: #ffffff"/>
   </g>
   <g id="text_2">
    <path d="M 76.588308 184.569716 
L 77.217215 184.569716 
L 77.217215 189.888623 
L 76.588308 189.888623 
L 76.588308 184.569716 
z
M 80.273289 187.964716 
Q 79.510945 187.964716 79.216726 188.138623 
Q 78.922508 188.312529 78.922508 188.733623 
Q 78.922508 189.06831 79.143445 189.265185 
Q 79.364383 189.460966 79.74282 189.460966 
Q 80.266726 189.460966 80.58282 189.090185 
Q 80.898914 188.719404 80.898914 188.104716 
L 80.898914 187.964716 
L 80.273289 187.964716 
z
M 81.52782 187.704404 
L 81.52782 189.888623 
L 80.898914 189.888623 
L 80.898914 189.307841 
Q 80.683445 189.655654 80.361883 189.821904 
Q 80.04032 189.988154 79.575476 189.988154 
Q 78.988133 189.988154 78.64032 189.657841 
Q 78.293601 189.327529 78.293601 188.774091 
Q 78.293601 188.128779 78.725633 187.800654 
Q 79.158758 187.472529 80.016258 187.472529 
L 80.898914 187.472529 
L 80.898914 187.410185 
Q 80.898914 186.975966 80.613445 186.738623 
Q 80.327976 186.501279 79.811726 186.501279 
Q 79.483601 186.501279 79.171883 186.580029 
Q 78.861258 186.658779 78.574695 186.816279 
L 78.574695 186.234404 
Q 78.919226 186.100966 79.24407 186.035341 
Q 79.568914 185.968623 79.876258 185.968623 
Q 80.707508 185.968623 81.117664 186.39956 
Q 81.52782 186.829404 81.52782 187.704404 
z
M 85.040808 186.647841 
Q 84.934715 186.586591 84.810027 186.558154 
Q 84.68534 186.528623 84.535496 186.528623 
Q 84.001746 186.528623 83.716277 186.875341 
Q 83.430808 187.22206 83.430808 187.871748 
L 83.430808 189.888623 
L 82.798621 189.888623 
L 82.798621 186.060498 
L 83.430808 186.060498 
L 83.430808 186.655498 
Q 83.629871 186.306591 83.947058 186.138154 
Q 84.26534 185.968623 84.72034 185.968623 
Q 84.784871 185.968623 84.863621 185.977373 
Q 84.942371 185.985029 85.037527 186.002529 
L 85.040808 186.647841 
z
M 88.097019 187.929716 
Q 88.097019 187.246123 87.814832 186.870966 
Q 87.533738 186.494716 87.024051 186.494716 
Q 86.518738 186.494716 86.236551 186.870966 
Q 85.954363 187.246123 85.954363 187.929716 
Q 85.954363 188.610029 86.236551 188.986279 
Q 86.518738 189.362529 87.024051 189.362529 
Q 87.533738 189.362529 87.814832 188.986279 
Q 88.097019 188.610029 88.097019 187.929716 
z
M 88.725926 189.413935 
Q 88.725926 190.390654 88.291707 190.867529 
Q 87.858582 191.344404 86.962801 191.344404 
Q 86.631394 191.344404 86.337176 191.295185 
Q 86.042957 191.245966 85.766238 191.143154 
L 85.766238 190.531748 
Q 86.042957 190.681591 86.313113 190.752685 
Q 86.583269 190.824873 86.863269 190.824873 
Q 87.482332 190.824873 87.789676 190.502216 
Q 88.097019 190.17956 88.097019 189.526591 
L 88.097019 189.214873 
Q 87.902332 189.553935 87.598269 189.721279 
Q 87.294207 189.888623 86.869832 189.888623 
Q 86.166551 189.888623 85.735613 189.352685 
Q 85.304676 188.815654 85.304676 187.929716 
Q 85.304676 187.041591 85.735613 186.505654 
Q 86.166551 185.968623 86.869832 185.968623 
Q 87.294207 185.968623 87.598269 186.135966 
Q 87.902332 186.30331 88.097019 186.641279 
L 88.097019 186.060498 
L 88.725926 186.060498 
L 88.725926 189.413935 
z
M 93.29616 187.81706 
L 93.29616 188.124404 
L 90.404285 188.124404 
Q 90.445847 188.774091 90.795847 189.114248 
Q 91.145847 189.454404 91.771472 189.454404 
Q 92.133504 189.454404 92.47366 189.36581 
Q 92.813816 189.277216 93.149597 189.098935 
L 93.149597 189.693935 
Q 92.810535 189.837216 92.455066 189.912685 
Q 92.099597 189.988154 91.734285 189.988154 
Q 90.817722 189.988154 90.282879 189.455498 
Q 89.748035 188.921748 89.748035 188.011748 
Q 89.748035 187.072216 90.255535 186.520966 
Q 90.763035 185.968623 91.62491 185.968623 
Q 92.397097 185.968623 92.846629 186.466279 
Q 93.29616 186.962841 93.29616 187.81706 
z
M 92.667254 187.632216 
Q 92.660691 187.11706 92.378504 186.809716 
Q 92.096316 186.501279 91.631472 186.501279 
Q 91.105379 186.501279 90.789285 186.798779 
Q 90.473191 187.096279 90.425066 187.636591 
L 92.667254 187.632216 
z
" style="fill: #ffffff; stroke: #000000; stroke-width: 1.4"/>
    <path d="M 76.588308 184.569716 
L 77.217215 184.569716 
L 77.217215 189.888623 
L 76.588308 189.888623 
L 76.588308 184.569716 
z
M 80.273289 187.964716 
Q 79.510945 187.964716 79.216726 188.138623 
Q 78.922508 188.312529 78.922508 188.733623 
Q 78.922508 189.06831 79.143445 189.265185 
Q 79.364383 189.460966 79.74282 189.460966 
Q 80.266726 189.460966 80.58282 189.090185 
Q 80.898914 188.719404 80.898914 188.104716 
L 80.898914 187.964716 
L 80.273289 187.964716 
z
M 81.52782 187.704404 
L 81.52782 189.888623 
L 80.898914 189.888623 
L 80.898914 189.307841 
Q 80.683445 189.655654 80.361883 189.821904 
Q 80.04032 189.988154 79.575476 189.988154 
Q 78.988133 189.988154 78.64032 189.657841 
Q 78.293601 189.327529 78.293601 188.774091 
Q 78.293601 188.128779 78.725633 187.800654 
Q 79.158758 187.472529 80.016258 187.472529 
L 80.898914 187.472529 
L 80.898914 187.410185 
Q 80.898914 186.975966 80.613445 186.738623 
Q 80.327976 186.501279 79.811726 186.501279 
Q 79.483601 186.501279 79.171883 186.580029 
Q 78.861258 186.658779 78.574695 186.816279 
L 78.574695 186.234404 
Q 78.919226 186.100966 79.24407 186.035341 
Q 79.568914 185.968623 79.876258 185.968623 
Q 80.707508 185.968623 81.117664 186.39956 
Q 81.52782 186.829404 81.52782 187.704404 
z
M 85.040808 186.647841 
Q 84.934715 186.586591 84.810027 186.558154 
Q 84.68534 186.528623 84.535496 186.528623 
Q 84.001746 186.528623 83.716277 186.875341 
Q 83.430808 187.22206 83.430808 187.871748 
L 83.430808 189.888623 
L 82.798621 189.888623 
L 82.798621 186.060498 
L 83.430808 186.060498 
L 83.430808 186.655498 
Q 83.629871 186.306591 83.947058 186.138154 
Q 84.26534 185.968623 84.72034 185.968623 
Q 84.784871 185.968623 84.863621 185.977373 
Q 84.942371 185.985029 85.037527 186.002529 
L 85.040808 186.647841 
z
M 88.097019 187.929716 
Q 88.097019 187.246123 87.814832 186.870966 
Q 87.533738 186.494716 87.024051 186.494716 
Q 86.518738 186.494716 86.236551 186.870966 
Q 85.954363 187.246123 85.954363 187.929716 
Q 85.954363 188.610029 86.236551 188.986279 
Q 86.518738 189.362529 87.024051 189.362529 
Q 87.533738 189.362529 87.814832 188.986279 
Q 88.097019 188.610029 88.097019 187.929716 
z
M 88.725926 189.413935 
Q 88.725926 190.390654 88.291707 190.867529 
Q 87.858582 191.344404 86.962801 191.344404 
Q 86.631394 191.344404 86.337176 191.295185 
Q 86.042957 191.245966 85.766238 191.143154 
L 85.766238 190.531748 
Q 86.042957 190.681591 86.313113 190.752685 
Q 86.583269 190.824873 86.863269 190.824873 
Q 87.482332 190.824873 87.789676 190.502216 
Q 88.097019 190.17956 88.097019 189.526591 
L 88.097019 189.214873 
Q 87.902332 189.553935 87.598269 189.721279 
Q 87.294207 189.888623 86.869832 189.888623 
Q 86.166551 189.888623 85.735613 189.352685 
Q 85.304676 188.815654 85.304676 187.929716 
Q 85.304676 187.041591 85.735613 186.505654 
Q 86.166551 185.968623 86.869832 185.968623 
Q 87.294207 185.968623 87.598269 186.135966 
Q 87.902332 186.30331 88.097019 186.641279 
L 88.097019 186.060498 
L 88.725926 186.060498 
L 88.725926 189.413935 
z
M 93.29616 187.81706 
L 93.29616 188.124404 
L 90.404285 188.124404 
Q 90.445847 188.774091 90.795847 189.114248 
Q 91.145847 189.454404 91.771472 189.454404 
Q 92.133504 189.454404 92.47366 189.36581 
Q 92.813816 189.277216 93.149597 189.098935 
L 93.149597 189.693935 
Q 92.810535 189.837216 92.455066 189.912685 
Q 92.099597 189.988154 91.734285 189.988154 
Q 90.817722 189.988154 90.282879 189.455498 
Q 89.748035 188.921748 89.748035 188.011748 
Q 89.748035 187.072216 90.255535 186.520966 
Q 90.763035 185.968623 91.62491 185.968623 
Q 92.397097 185.968623 92.846629 186.466279 
Q 93.29616 186.962841 93.29616 187.81706 
z
M 92.667254 187.632216 
Q 92.660691 187.11706 92.378504 186.809716 
Q 92.096316 186.501279 91.631472 186.501279 
Q 91.105379 186.501279 90.789285 186.798779 
Q 90.473191 187.096279 90.425066 187.636591 
L 92.667254 187.632216 
z
" style="fill: #ffffff"/>
   </g>
   <g id="text_3">
    <!-- medium -->
    <g style="fill: #38a9c4" transform="translate(218.60063 172.354699) scale(0.07 -0.07)">
     <defs>
      <path id="DejaVuSans-6d" d="M 3328 2828 
Q 3544 3216 3844 3400 
Q 4144 3584 4550 3584 
Q 5097 3584 5394 3201 
Q 5691 2819 5691 2113 
L 5691 0 
L 5113 0 
L 5113 2094 
Q 5113 2597 4934 2840 
Q 4756 3084 4391 3084 
Q 3944 3084 3684 2787 
Q 3425 2491 3425 1978 
L 3425 0 
L 2847 0 
L 2847 2094 
Q 2847 2600 2669 2842 
Q 2491 3084 2119 3084 
Q 1678 3084 1418 2786 
Q 1159 2488 1159 1978 
L 1159 0 
L 581 0 
L 581 3500 
L 1159 3500 
L 1159 2956 
Q 1356 3278 1631 3431 
Q 1906 3584 2284 3584 
Q 2666 3584 2933 3390 
Q 3200 3197 3328 2828 
z
" transform="scale(0.015625)"/>
      <path id="DejaVuSans-65" d="M 3597 1894 
L 3597 1613 
L 953 1613 
Q 991 1019 1311 708 
Q 1631 397 2203 397 
Q 2534 397 2845 478 
Q 3156 559 3463 722 
L 3463 178 
Q 3153 47 2828 -22 
Q 2503 -91 2169 -91 
Q 1331 -91 842 396 
Q 353 884 353 1716 
Q 353 2575 817 3079 
Q 1281 3584 2069 3584 
Q 2775 3584 3186 3129 
Q 3597 2675 3597 1894 
z
M 3022 2063 
Q 3016 2534 2758 2815 
Q 2500 3097 2075 3097 
Q 1594 3097 1305 2825 
Q 1016 2553 972 2059 
L 3022 2063 
z
" transform="scale(0.015625)"/>
      <path id="DejaVuSans-64" d="M 2906 2969 
L 2906 4863 
L 3481 4863 
L 3481 0 
L 2906 0 
L 2906 525 
Q 2725 213 2448 61 
Q 2172 -91 1784 -91 
Q 1150 -91 751 415 
Q 353 922 353 1747 
Q 353 2572 751 3078 
Q 1150 3584 1784 3584 
Q 2172 3584 2448 3432 
Q 2725 3281 2906 2969 
z
M 947 1747 
Q 947 1113 1208 752 
Q 1469 391 1925 391 
Q 2381 391 2643 752 
Q 2906 1113 2906 1747 
Q 2906 2381 2643 2742 
Q 2381 3103 1925 3103 
Q 1469 3103 1208 2742 
Q 947 2381 947 1747 
z
" transform="scale(0.015625)"/>
      <path id="DejaVuSans-69" d="M 603 3500 
L 1178 3500 
L 1178 0 
L 603 0 
L 603 3500 
z
M 603 4863 
L 1178 4863 
L 1178 4134 
L 603 4134 
L 603 4863 
z
" transform="scale(0.015625)"/>
      <path id="DejaVuSans-75" d="M 544 1381 
L 544 3500 
L 1119 3500 
L 1119 1403 
Q 1119 906 1312 657 
Q 1506 409 1894 409 
Q 2359 409 2629 706 
Q 2900 1003 2900 1516 
L 2900 3500 
L 3475 3500 
L 3475 0 
L 2900 0 
L 2900 538 
Q 2691 219 2414 64 
Q 2138 -91 1772 -91 
Q 1169 -91 856 284 
Q 544 659 544 1381 
z
M 1991 3584 
L 1991 3584 
z
" transform="scale(0.015625)"/>
     </defs>
     <use xlink:href="#DejaVuSans-6d"/>
     <use xlink:href="#DejaVuSans-65" x="97.412109"/>
     <use xlink:href="#DejaVuSans-64" x="158.935547"/>
     <use xlink:href="#DejaVuSans-69" x="222.412109"/>
     <use xlink:href="#DejaVuSans-75" x="250.195312"/>
     <use xlink:href="#DejaVuSans-6d" x="313.574219"/>
    </g>
   </g>
   <g id="text_4">
    <!-- xl -->
    <g style="fill: #38a9c4" transform="translate(214.198488 227.180063) scale(0.07 -0.07)">
     <defs>
      <path id="DejaVuSans-78" d="M 3513 3500 
L 2247 1797 
L 3578 0 
L 2900 0 
L 1881 1375 
L 863 0 
L 184 0 
L 1544 1831 
L 300 3500 
L 978 3500 
L 1906 2253 
L 2834 3500 
L 3513 3500 
z
" transform="scale(0.015625)"/>
      <path id="DejaVuSans-6c" d="M 603 4863 
L 1178 4863 
L 1178 0 
L 603 0 
L 603 4863 
z
" transform="scale(0.015625)"/>
     </defs>
     <use xlink:href="#DejaVuSans-78"/>
     <use xlink:href="#DejaVuSans-6c" x="59.179688"/>
    </g>
   </g>
   <g id="text_5">
    <path d="M 404.752465 179.012953 
Q 404.752465 178.319516 404.466996 177.924672 
Q 404.181527 177.529828 403.682777 177.529828 
Q 403.182934 177.529828 402.897465 177.924672 
Q 402.611996 178.319516 402.611996 179.012953 
Q 402.611996 179.706391 402.897465 180.101234 
Q 403.182934 180.496078 403.682777 180.496078 
Q 404.181527 180.496078 404.466996 180.101234 
Q 404.752465 179.706391 404.752465 179.012953 
z
M 402.611996 177.676391 
Q 402.811059 177.335141 403.112934 177.169984 
Q 403.415902 177.003734 403.835902 177.003734 
Q 404.533715 177.003734 404.969027 177.557172 
Q 405.405434 178.110609 405.405434 179.012953 
Q 405.405434 179.915297 404.969027 180.469828 
Q 404.533715 181.023266 403.835902 181.023266 
Q 403.415902 181.023266 403.112934 180.857016 
Q 402.811059 180.690766 402.611996 180.349516 
L 402.611996 180.923734 
L 401.979809 180.923734 
L 401.979809 175.604828 
L 402.611996 175.604828 
L 402.611996 177.676391 
z
M 409.721918 178.852172 
L 409.721918 179.159516 
L 406.830043 179.159516 
Q 406.871605 179.809203 407.221605 180.149359 
Q 407.571605 180.489516 408.19723 180.489516 
Q 408.559262 180.489516 408.899418 180.400922 
Q 409.239574 180.312328 409.575355 180.134047 
L 409.575355 180.729047 
Q 409.236293 180.872328 408.880824 180.947797 
Q 408.525355 181.023266 408.160043 181.023266 
Q 407.24348 181.023266 406.708637 180.490609 
Q 406.173793 179.956859 406.173793 179.046859 
Q 406.173793 178.107328 406.681293 177.556078 
Q 407.188793 177.003734 408.050668 177.003734 
Q 408.822855 177.003734 409.272387 177.501391 
Q 409.721918 177.997953 409.721918 178.852172 
z
M 409.093012 178.667328 
Q 409.086449 178.152172 408.804262 177.844828 
Q 408.522074 177.536391 408.05723 177.536391 
Q 407.531137 177.536391 407.215043 177.833891 
Q 406.898949 178.131391 406.850824 178.671703 
L 409.093012 178.667328 
z
M 411.376215 176.008422 
L 411.376215 177.095609 
L 412.671215 177.095609 
L 412.671215 177.584516 
L 411.376215 177.584516 
L 411.376215 179.662641 
Q 411.376215 180.130766 411.504184 180.264203 
Q 411.632152 180.397641 412.025902 180.397641 
L 412.671215 180.397641 
L 412.671215 180.923734 
L 412.025902 180.923734 
Q 411.297465 180.923734 411.020746 180.652484 
Q 410.744027 180.380141 410.744027 179.662641 
L 410.744027 177.584516 
L 410.282465 177.584516 
L 410.282465 177.095609 
L 410.744027 177.095609 
L 410.744027 176.008422 
L 411.376215 176.008422 
z
M 413.133187 177.095609 
L 413.762094 177.095609 
L 414.5485 180.082641 
L 415.330531 177.095609 
L 416.072094 177.095609 
L 416.8585 180.082641 
L 417.641625 177.095609 
L 418.270531 177.095609 
L 417.268656 180.923734 
L 416.527094 180.923734 
L 415.7035 177.785766 
L 414.876625 180.923734 
L 414.133969 180.923734 
L 413.133187 177.095609 
z
M 422.498285 178.852172 
L 422.498285 179.159516 
L 419.60641 179.159516 
Q 419.647973 179.809203 419.997973 180.149359 
Q 420.347973 180.489516 420.973598 180.489516 
Q 421.335629 180.489516 421.675785 180.400922 
Q 422.015941 180.312328 422.351723 180.134047 
L 422.351723 180.729047 
Q 422.01266 180.872328 421.657191 180.947797 
Q 421.301723 181.023266 420.93641 181.023266 
Q 420.019848 181.023266 419.485004 180.490609 
Q 418.95016 179.956859 418.95016 179.046859 
Q 418.95016 178.107328 419.45766 177.556078 
Q 419.96516 177.003734 420.827035 177.003734 
Q 421.599223 177.003734 422.048754 177.501391 
Q 422.498285 177.997953 422.498285 178.852172 
z
M 421.869379 178.667328 
Q 421.862816 178.152172 421.580629 177.844828 
Q 421.298441 177.536391 420.833598 177.536391 
Q 420.307504 177.536391 419.99141 177.833891 
Q 419.675316 178.131391 419.627191 178.671703 
L 421.869379 178.667328 
z
M 426.804926 178.852172 
L 426.804926 179.159516 
L 423.913051 179.159516 
Q 423.954613 179.809203 424.304613 180.149359 
Q 424.654613 180.489516 425.280238 180.489516 
Q 425.642269 180.489516 425.982426 180.400922 
Q 426.322582 180.312328 426.658363 180.134047 
L 426.658363 180.729047 
Q 426.319301 180.872328 425.963832 180.947797 
Q 425.608363 181.023266 425.243051 181.023266 
Q 424.326488 181.023266 423.791644 180.490609 
Q 423.256801 179.956859 423.256801 179.046859 
Q 423.256801 178.107328 423.764301 177.556078 
Q 424.271801 177.003734 425.133676 177.003734 
Q 425.905863 177.003734 426.355394 177.501391 
Q 426.804926 177.997953 426.804926 178.852172 
z
M 426.176019 178.667328 
Q 426.169457 178.152172 425.887269 177.844828 
Q 425.605082 177.536391 425.140238 177.536391 
Q 424.614144 177.536391 424.298051 177.833891 
Q 423.981957 178.131391 423.933832 178.671703 
L 426.176019 178.667328 
z
M 431.019691 178.612641 
L 431.019691 180.923734 
L 430.390785 180.923734 
L 430.390785 178.633422 
Q 430.390785 178.089828 430.178598 177.820766 
Q 429.96641 177.550609 429.543129 177.550609 
Q 429.033441 177.550609 428.739223 177.875453 
Q 428.445004 178.199203 428.445004 178.760297 
L 428.445004 180.923734 
L 427.812816 180.923734 
L 427.812816 177.095609 
L 428.445004 177.095609 
L 428.445004 177.690609 
Q 428.67141 177.344984 428.976566 177.174359 
Q 429.282816 177.003734 429.683129 177.003734 
Q 430.34266 177.003734 430.680629 177.411703 
Q 431.019691 177.819672 431.019691 178.612641 
z
" style="fill: #ffffff; stroke: #000000; stroke-width: 1.4"/>
    <path d="M 404.752465 179.012953 
Q 404.752465 178.319516 404.466996 177.924672 
Q 404.181527 177.529828 403.682777 177.529828 
Q 403.182934 177.529828 402.897465 177.924672 
Q 402.611996 178.319516 402.611996 179.012953 
Q 402.611996 179.706391 402.897465 180.101234 
Q 403.182934 180.496078 403.682777 180.496078 
Q 404.181527 180.496078 404.466996 180.101234 
Q 404.752465 179.706391 404.752465 179.012953 
z
M 402.611996 177.676391 
Q 402.811059 177.335141 403.112934 177.169984 
Q 403.415902 177.003734 403.835902 177.003734 
Q 404.533715 177.003734 404.969027 177.557172 
Q 405.405434 178.110609 405.405434 179.012953 
Q 405.405434 179.915297 404.969027 180.469828 
Q 404.533715 181.023266 403.835902 181.023266 
Q 403.415902 181.023266 403.112934 180.857016 
Q 402.811059 180.690766 402.611996 180.349516 
L 402.611996 180.923734 
L 401.979809 180.923734 
L 401.979809 175.604828 
L 402.611996 175.604828 
L 402.611996 177.676391 
z
M 409.721918 178.852172 
L 409.721918 179.159516 
L 406.830043 179.159516 
Q 406.871605 179.809203 407.221605 180.149359 
Q 407.571605 180.489516 408.19723 180.489516 
Q 408.559262 180.489516 408.899418 180.400922 
Q 409.239574 180.312328 409.575355 180.134047 
L 409.575355 180.729047 
Q 409.236293 180.872328 408.880824 180.947797 
Q 408.525355 181.023266 408.160043 181.023266 
Q 407.24348 181.023266 406.708637 180.490609 
Q 406.173793 179.956859 406.173793 179.046859 
Q 406.173793 178.107328 406.681293 177.556078 
Q 407.188793 177.003734 408.050668 177.003734 
Q 408.822855 177.003734 409.272387 177.501391 
Q 409.721918 177.997953 409.721918 178.852172 
z
M 409.093012 178.667328 
Q 409.086449 178.152172 408.804262 177.844828 
Q 408.522074 177.536391 408.05723 177.536391 
Q 407.531137 177.536391 407.215043 177.833891 
Q 406.898949 178.131391 406.850824 178.671703 
L 409.093012 178.667328 
z
M 411.376215 176.008422 
L 411.376215 177.095609 
L 412.671215 177.095609 
L 412.671215 177.584516 
L 411.376215 177.584516 
L 411.376215 179.662641 
Q 411.376215 180.130766 411.504184 180.264203 
Q 411.632152 180.397641 412.025902 180.397641 
L 412.671215 180.397641 
L 412.671215 180.923734 
L 412.025902 180.923734 
Q 411.297465 180.923734 411.020746 180.652484 
Q 410.744027 180.380141 410.744027 179.662641 
L 410.744027 177.584516 
L 410.282465 177.584516 
L 410.282465 177.095609 
L 410.744027 177.095609 
L 410.744027 176.008422 
L 411.376215 176.008422 
z
M 413.133187 177.095609 
L 413.762094 177.095609 
L 414.5485 180.082641 
L 415.330531 177.095609 
L 416.072094 177.095609 
L 416.8585 180.082641 
L 417.641625 177.095609 
L 418.270531 177.095609 
L 417.268656 180.923734 
L 416.527094 180.923734 
L 415.7035 177.785766 
L 414.876625 180.923734 
L 414.133969 180.923734 
L 413.133187 177.095609 
z
M 422.498285 178.852172 
L 422.498285 179.159516 
L 419.60641 179.159516 
Q 419.647973 179.809203 419.997973 180.149359 
Q 420.347973 180.489516 420.973598 180.489516 
Q 421.335629 180.489516 421.675785 180.400922 
Q 422.015941 180.312328 422.351723 180.134047 
L 422.351723 180.729047 
Q 422.01266 180.872328 421.657191 180.947797 
Q 421.301723 181.023266 420.93641 181.023266 
Q 420.019848 181.023266 419.485004 180.490609 
Q 418.95016 179.956859 418.95016 179.046859 
Q 418.95016 178.107328 419.45766 177.556078 
Q 419.96516 177.003734 420.827035 177.003734 
Q 421.599223 177.003734 422.048754 177.501391 
Q 422.498285 177.997953 422.498285 178.852172 
z
M 421.869379 178.667328 
Q 421.862816 178.152172 421.580629 177.844828 
Q 421.298441 177.536391 420.833598 177.536391 
Q 420.307504 177.536391 419.99141 177.833891 
Q 419.675316 178.131391 419.627191 178.671703 
L 421.869379 178.667328 
z
M 426.804926 178.852172 
L 426.804926 179.159516 
L 423.913051 179.159516 
Q 423.954613 179.809203 424.304613 180.149359 
Q 424.654613 180.489516 425.280238 180.489516 
Q 425.642269 180.489516 425.982426 180.400922 
Q 426.322582 180.312328 426.658363 180.134047 
L 426.658363 180.729047 
Q 426.319301 180.872328 425.963832 180.947797 
Q 425.608363 181.023266 425.243051 181.023266 
Q 424.326488 181.023266 423.791644 180.490609 
Q 423.256801 179.956859 423.256801 179.046859 
Q 423.256801 178.107328 423.764301 177.556078 
Q 424.271801 177.003734 425.133676 177.003734 
Q 425.905863 177.003734 426.355394 177.501391 
Q 426.804926 177.997953 426.804926 178.852172 
z
M 426.176019 178.667328 
Q 426.169457 178.152172 425.887269 177.844828 
Q 425.605082 177.536391 425.140238 177.536391 
Q 424.614144 177.536391 424.298051 177.833891 
Q 423.981957 178.131391 423.933832 178.671703 
L 426.176019 178.667328 
z
M 431.019691 178.612641 
L 431.019691 180.923734 
L 430.390785 180.923734 
L 430.390785 178.633422 
Q 430.390785 178.089828 430.178598 177.820766 
Q 429.96641 177.550609 429.543129 177.550609 
Q 429.033441 177.550609 428.739223 177.875453 
Q 428.445004 178.199203 428.445004 178.760297 
L 428.445004 180.923734 
L 427.812816 180.923734 
L 427.812816 177.095609 
L 428.445004 177.095609 
L 428.445004 177.690609 
Q 428.67141 177.344984 428.976566 177.174359 
Q 429.282816 177.003734 429.683129 177.003734 
Q 430.34266 177.003734 430.680629 177.411703 
Q 431.019691 177.819672 431.019691 178.612641 
z
" style="fill: #ffffff"/>
   </g>
   <g id="text_6">
    <!-- xxl -->
    <g style="fill: #38a9c4" transform="translate(193.816282 227.368143) scale(0.07 -0.07)">
     <use xlink:href="#DejaVuSans-78"/>
     <use xlink:href="#DejaVuSans-78" x="59.179688"/>
     <use xlink:href="#DejaVuSans-6c" x="118.359375"/>
    </g>
   </g>
   <g id="text_7">
    <!-- l -->
    <g style="fill: #38a9c4" transform="translate(247.860201 213.336287) scale(0.07 -0.07)">
     <use xlink:href="#DejaVuSans-6c"/>
    </g>
   </g>
   <g id="text_8">
    <!-- m -->
    <g style="fill: #38a9c4" transform="translate(259.632765 205.556836) scale(0.07 -0.07)">
     <use xlink:href="#DejaVuSans-6d"/>
    </g>
   </g>
   <g id="text_9">
    <path d="M 293.919582 232.386795 
L 293.919582 232.981795 
Q 293.653801 232.845077 293.366144 232.777264 
Q 293.079582 232.708358 292.771144 232.708358 
Q 292.303019 232.708358 292.068957 232.851639 
Q 291.834894 232.99492 291.834894 233.282577 
Q 291.834894 233.501327 292.002238 233.626014 
Q 292.169582 233.750702 292.675988 233.863358 
L 292.891457 233.911483 
Q 293.560832 234.054764 293.843019 234.31617 
Q 294.125207 234.577577 294.125207 235.045702 
Q 294.125207 235.579452 293.703019 235.89117 
Q 293.280832 236.201795 292.542551 236.201795 
Q 292.235207 236.201795 291.901613 236.141639 
Q 291.568019 236.081483 291.199426 235.962264 
L 291.199426 235.312577 
Q 291.548332 235.494139 291.886301 235.58492 
Q 292.224269 235.674608 292.556769 235.674608 
Q 293.000832 235.674608 293.239269 235.522577 
Q 293.478801 235.370545 293.478801 235.093827 
Q 293.478801 234.837889 293.305988 234.70117 
Q 293.134269 234.564452 292.549113 234.437577 
L 292.330363 234.38617 
Q 291.746301 234.26367 291.485988 234.008827 
Q 291.226769 233.753983 291.226769 233.30992 
Q 291.226769 232.769608 291.609582 232.476483 
Q 291.992394 232.182264 292.696769 232.182264 
Q 293.044582 232.182264 293.351926 232.23367 
Q 293.660363 232.283983 293.919582 232.386795 
z
" style="fill: #ffffff; stroke: #000000; stroke-width: 1.4"/>
    <path d="M 293.919582 232.386795 
L 293.919582 232.981795 
Q 293.653801 232.845077 293.366144 232.777264 
Q 293.079582 232.708358 292.771144 232.708358 
Q 292.303019 232.708358 292.068957 232.851639 
Q 291.834894 232.99492 291.834894 233.282577 
Q 291.834894 233.501327 292.002238 233.626014 
Q 292.169582 233.750702 292.675988 233.863358 
L 292.891457 233.911483 
Q 293.560832 234.054764 293.843019 234.31617 
Q 294.125207 234.577577 294.125207 235.045702 
Q 294.125207 235.579452 293.703019 235.89117 
Q 293.280832 236.201795 292.542551 236.201795 
Q 292.235207 236.201795 291.901613 236.141639 
Q 291.568019 236.081483 291.199426 235.962264 
L 291.199426 235.312577 
Q 291.548332 235.494139 291.886301 235.58492 
Q 292.224269 235.674608 292.556769 235.674608 
Q 293.000832 235.674608 293.239269 235.522577 
Q 293.478801 235.370545 293.478801 235.093827 
Q 293.478801 234.837889 293.305988 234.70117 
Q 293.134269 234.564452 292.549113 234.437577 
L 292.330363 234.38617 
Q 291.746301 234.26367 291.485988 234.008827 
Q 291.226769 233.753983 291.226769 233.30992 
Q 291.226769 232.769608 291.609582 232.476483 
Q 291.992394 232.182264 292.696769 232.182264 
Q 293.044582 232.182264 293.351926 232.23367 
Q 293.660363 232.283983 293.919582 232.386795 
z
" style="fill: #ffffff"/>
   </g>
   <g id="text_10">
    <!-- xs -->
    <g style="fill: #38a9c4" transform="translate(252.006742 229.188926) scale(0.07 -0.07)">
     <defs>
      <path id="DejaVuSans-73" d="M 2834 3397 
L 2834 2853 
Q 2591 2978 2328 3040 
Q 2066 3103 1784 3103 
Q 1356 3103 1142 2972 
Q 928 2841 928 2578 
Q 928 2378 1081 2264 
Q 1234 2150 1697 2047 
L 1894 2003 
Q 2506 1872 2764 1633 
Q 3022 1394 3022 966 
Q 3022 478 2636 193 
Q 2250 -91 1575 -91 
Q 1294 -91 989 -36 
Q 684 19 347 128 
L 347 722 
Q 666 556 975 473 
Q 1284 391 1588 391 
Q 1994 391 2212 530 
Q 2431 669 2431 922 
Q 2431 1156 2273 1281 
Q 2116 1406 1581 1522 
L 1381 1569 
Q 847 1681 609 1914 
Q 372 2147 372 2553 
Q 372 3047 722 3315 
Q 1072 3584 1716 3584 
Q 2034 3584 2315 3537 
Q 2597 3491 2834 3397 
z
" transform="scale(0.015625)"/>
     </defs>
     <use xlink:href="#DejaVuSans-78"/>
     <use xlink:href="#DejaVuSans-73" x="59.179688"/>
    </g>
   </g>
   <g id="text_11">
    <!-- 2x -->
    <g style="fill: #38a9c4" transform="translate(204.376377 192.3148) scale(0.07 -0.07)">
     <defs>
      <path id="DejaVuSans-32" d="M 1228 531 
L 3431 531 
L 3431 0 
L 469 0 
L 469 531 
Q 828 903 1448 1529 
Q 2069 2156 2228 2338 
Q 2531 2678 2651 2914 
Q 2772 3150 2772 3378 
Q 2772 3750 2511 3984 
Q 2250 4219 1831 4219 
Q 1534 4219 1204 4116 
Q 875 4013 500 3803 
L 500 4441 
Q 881 4594 1212 4672 
Q 1544 4750 1819 4750 
Q 2544 4750 2975 4387 
Q 3406 4025 3406 3419 
Q 3406 3131 3298 2873 
Q 3191 2616 2906 2266 
Q 2828 2175 2409 1742 
Q 1991 1309 1228 531 
z
" transform="scale(0.015625)"/>
     </defs>
     <use xlink:href="#DejaVuSans-32"/>
     <use xlink:href="#DejaVuSans-78" x="63.623047"/>
    </g>
   </g>
   <g id="text_12">
    <!-- 3x -->
    <g style="fill: #38a9c4" transform="translate(178.547089 189.488053) scale(0.07 -0.07)">
     <defs>
      <path id="DejaVuSans-33" d="M 2597 2516 
Q 3050 2419 3304 2112 
Q 3559 1806 3559 1356 
Q 3559 666 3084 287 
Q 2609 -91 1734 -91 
Q 1441 -91 1130 -33 
Q 819 25 488 141 
L 488 750 
Q 750 597 1062 519 
Q 1375 441 1716 441 
Q 2309 441 2620 675 
Q 2931 909 2931 1356 
Q 2931 1769 2642 2001 
Q 2353 2234 1838 2234 
L 1294 2234 
L 1294 2753 
L 1863 2753 
Q 2328 2753 2575 2939 
Q 2822 3125 2822 3475 
Q 2822 3834 2567 4026 
Q 2313 4219 1838 4219 
Q 1578 4219 1281 4162 
Q 984 4106 628 3988 
L 628 4550 
Q 988 4650 1302 4700 
Q 1616 4750 1894 4750 
Q 2613 4750 3031 4423 
Q 3450 4097 3450 3541 
Q 3450 3153 3228 2886 
Q 3006 2619 2597 2516 
z
" transform="scale(0.015625)"/>
     </defs>
     <use xlink:href="#DejaVuSans-33"/>
     <use xlink:href="#DejaVuSans-78" x="63.623047"/>
    </g>
   </g>
   <g id="text_13">
    <!-- 2xl -->
    <g style="fill: #38a9c4" transform="translate(195.733426 201.910907) scale(0.07 -0.07)">
     <use xlink:href="#DejaVuSans-32"/>
     <use xlink:href="#DejaVuSans-78" x="63.623047"/>
     <use xlink:href="#DejaVuSans-6c" x="122.802734"/>
    </g>
   </g>
   <g id="text_14">
    <!-- xlarge -->
    <g style="fill: #38a9c4" transform="translate(208.942815 238.400264) scale(0.07 -0.07)">
     <defs>
      <path id="DejaVuSans-61" d="M 2194 1759 
Q 1497 1759 1228 1600 
Q 959 1441 959 1056 
Q 959 750 1161 570 
Q 1363 391 1709 391 
Q 2188 391 2477 730 
Q 2766 1069 2766 1631 
L 2766 1759 
L 2194 1759 
z
M 3341 1997 
L 3341 0 
L 2766 0 
L 2766 531 
Q 2569 213 2275 61 
Q 1981 -91 1556 -91 
Q 1019 -91 701 211 
Q 384 513 384 1019 
Q 384 1609 779 1909 
Q 1175 2209 1959 2209 
L 2766 2209 
L 2766 2266 
Q 2766 2663 2505 2880 
Q 2244 3097 1772 3097 
Q 1472 3097 1187 3025 
Q 903 2953 641 2809 
L 641 3341 
Q 956 3463 1253 3523 
Q 1550 3584 1831 3584 
Q 2591 3584 2966 3190 
Q 3341 2797 3341 1997 
z
" transform="scale(0.015625)"/>
      <path id="DejaVuSans-72" d="M 2631 2963 
Q 2534 3019 2420 3045 
Q 2306 3072 2169 3072 
Q 1681 3072 1420 2755 
Q 1159 2438 1159 1844 
L 1159 0 
L 581 0 
L 581 3500 
L 1159 3500 
L 1159 2956 
Q 1341 3275 1631 3429 
Q 1922 3584 2338 3584 
Q 2397 3584 2469 3576 
Q 2541 3569 2628 3553 
L 2631 2963 
z
" transform="scale(0.015625)"/>
      <path id="DejaVuSans-67" d="M 2906 1791 
Q 2906 2416 2648 2759 
Q 2391 3103 1925 3103 
Q 1463 3103 1205 2759 
Q 947 2416 947 1791 
Q 947 1169 1205 825 
Q 1463 481 1925 481 
Q 2391 481 2648 825 
Q 2906 1169 2906 1791 
z
M 3481 434 
Q 3481 -459 3084 -895 
Q 2688 -1331 1869 -1331 
Q 1566 -1331 1297 -1286 
Q 1028 -1241 775 -1147 
L 775 -588 
Q 1028 -725 1275 -790 
Q 1522 -856 1778 -856 
Q 2344 -856 2625 -561 
Q 2906 -266 2906 331 
L 2906 616 
Q 2728 306 2450 153 
Q 2172 0 1784 0 
Q 1141 0 747 490 
Q 353 981 353 1791 
Q 353 2603 747 3093 
Q 1141 3584 1784 3584 
Q 2172 3584 2450 3431 
Q 2728 3278 2906 2969 
L 2906 3500 
L 3481 3500 
L 3481 434 
z
" transform="scale(0.015625)"/>
     </defs>
     <use xlink:href="#DejaVuSans-78"/>
     <use xlink:href="#DejaVuSans-6c" x="59.179688"/>
     <use xlink:href="#DejaVuSans-61" x="86.962891"/>
     <use xlink:href="#DejaVuSans-72" x="148.242188"/>
     <use xlink:href="#DejaVuSans-67" x="187.605469"/>
     <use xlink:href="#DejaVuSans-65" x="251.082031"/>
    </g>
   </g>
   <g id="text_15">
    <!-- med -->
    <g style="fill: #38a9c4" transform="translate(233.06208 174.84585) scale(0.07 -0.07)">
     <use xlink:href="#DejaVuSans-6d"/>
     <use xlink:href="#DejaVuSans-65" x="97.412109"/>
     <use xlink:href="#DejaVuSans-64" x="158.935547"/>
    </g>
   </g>
   <g id="text_16">
    <!-- 810 -->
    <g style="fill: #38a9c4" transform="translate(297.437158 120.817263) scale(0.07 -0.07)">
     <defs>
      <path id="DejaVuSans-38" d="M 2034 2216 
Q 1584 2216 1326 1975 
Q 1069 1734 1069 1313 
Q 1069 891 1326 650 
Q 1584 409 2034 409 
Q 2484 409 2743 651 
Q 3003 894 3003 1313 
Q 3003 1734 2745 1975 
Q 2488 2216 2034 2216 
z
M 1403 2484 
Q 997 2584 770 2862 
Q 544 3141 544 3541 
Q 544 4100 942 4425 
Q 1341 4750 2034 4750 
Q 2731 4750 3128 4425 
Q 3525 4100 3525 3541 
Q 3525 3141 3298 2862 
Q 3072 2584 2669 2484 
Q 3125 2378 3379 2068 
Q 3634 1759 3634 1313 
Q 3634 634 3220 271 
Q 2806 -91 2034 -91 
Q 1263 -91 848 271 
Q 434 634 434 1313 
Q 434 1759 690 2068 
Q 947 2378 1403 2484 
z
M 1172 3481 
Q 1172 3119 1398 2916 
Q 1625 2713 2034 2713 
Q 2441 2713 2670 2916 
Q 2900 3119 2900 3481 
Q 2900 3844 2670 4047 
Q 2441 4250 2034 4250 
Q 1625 4250 1398 4047 
Q 1172 3844 1172 3481 
z
" transform="scale(0.015625)"/>
      <path id="DejaVuSans-31" d="M 794 531 
L 1825 531 
L 1825 4091 
L 703 3866 
L 703 4441 
L 1819 4666 
L 2450 4666 
L 2450 531 
L 3481 531 
L 3481 0 
L 794 0 
L 794 531 
z
" transform="scale(0.015625)"/>
      <path id="DejaVuSans-30" d="M 2034 4250 
Q 1547 4250 1301 3770 
Q 1056 3291 1056 2328 
Q 1056 1369 1301 889 
Q 1547 409 2034 409 
Q 2525 409 2770 889 
Q 3016 1369 3016 2328 
Q 3016 3291 2770 3770 
Q 2525 4250 2034 4250 
z
M 2034 4750 
Q 2819 4750 3233 4129 
Q 3647 3509 3647 2328 
Q 3647 1150 3233 529 
Q 2819 -91 2034 -91 
Q 1250 -91 836 529 
Q 422 1150 422 2328 
Q 422 3509 836 4129 
Q 1250 4750 2034 4750 
z
" transform="scale(0.015625)"/>
     </defs>
     <use xlink:href="#DejaVuSans-38"/>
     <use xlink:href="#DejaVuSans-31" x="63.623047"/>
     <use xlink:href="#DejaVuSans-30" x="127.246094"/>
    </g>
   </g>
   <g id="text_17">
    <!-- 46 -->
    <g style="fill: #38a9c4" transform="translate(307.872371 103.295368) scale(0.07 -0.07)">
     <defs>
      <path id="DejaVuSans-34" d="M 2419 4116 
L 825 1625 
L 2419 1625 
L 2419 4116 
z
M 2253 4666 
L 3047 4666 
L 3047 1625 
L 3713 1625 
L 3713 1100 
L 3047 1100 
L 3047 0 
L 2419 0 
L 2419 1100 
L 313 1100 
L 313 1709 
L 2253 4666 
z
" transform="scale(0.015625)"/>
      <path id="DejaVuSans-36" d="M 2113 2584 
Q 1688 2584 1439 2293 
Q 1191 2003 1191 1497 
Q 1191 994 1439 701 
Q 1688 409 2113 409 
Q 2538 409 2786 701 
Q 3034 994 3034 1497 
Q 3034 2003 2786 2293 
Q 2538 2584 2113 2584 
z
M 3366 4563 
L 3366 3988 
Q 3128 4100 2886 4159 
Q 2644 4219 2406 4219 
Q 1781 4219 1451 3797 
Q 1122 3375 1075 2522 
Q 1259 2794 1537 2939 
Q 1816 3084 2150 3084 
Q 2853 3084 3261 2657 
Q 3669 2231 3669 1497 
Q 3669 778 3244 343 
Q 2819 -91 2113 -91 
Q 1303 -91 875 529 
Q 447 1150 447 2328 
Q 447 3434 972 4092 
Q 1497 4750 2381 4750 
Q 2619 4750 2861 4703 
Q 3103 4656 3366 4563 
z
" transform="scale(0.015625)"/>
     </defs>
     <use xlink:href="#DejaVuSans-34"/>
     <use xlink:href="#DejaVuSans-36" x="63.623047"/>
    </g>
   </g>
   <g id="text_18">
    <!-- 3xl -->
    <g style="fill: #38a9c4" transform="translate(189.824341 199.220238) scale(0.07 -0.07)">
     <use xlink:href="#DejaVuSans-33"/>
     <use xlink:href="#DejaVuSans-78" x="63.623047"/>
     <use xlink:href="#DejaVuSans-6c" x="122.802734"/>
    </g>
   </g>
   <g id="text_19">
    <!-- 1x -->
    <g style="fill: #38a9c4" transform="translate(239.594772 186.626991) scale(0.07 -0.07)">
     <use xlink:href="#DejaVuSans-31"/>
     <use xlink:href="#DejaVuSans-78" x="63.623047"/>
    </g>
   </g>
   <g id="text_20">
    <!-- 1012 -->
    <g style="fill: #38a9c4" transform="translate(279.684314 127.394298) scale(0.07 -0.07)">
     <use xlink:href="#DejaVuSans-31"/>
     <use xlink:href="#DejaVuSans-30" x="63.623047"/>
     <use xlink:href="#DejaVuSans-31" x="127.246094"/>
     <use xlink:href="#DejaVuSans-32" x="190.869141"/>
    </g>
   </g>
   <g id="text_21">
    <!-- xxxl -->
    <g style="fill: #38a9c4" transform="translate(184.287839 225.40291) scale(0.07 -0.07)">
     <use xlink:href="#DejaVuSans-78"/>
     <use xlink:href="#DejaVuSans-78" x="59.179688"/>
     <use xlink:href="#DejaVuSans-78" x="118.359375"/>
     <use xlink:href="#DejaVuSans-6c" x="177.539062"/>
    </g>
   </g>
   <g id="text_22">
    <!-- 68 -->
    <g style="fill: #38a9c4" transform="translate(298.686345 105.119924) scale(0.07 -0.07)">
     <use xlink:href="#DejaVuSans-36"/>
     <use xlink:href="#DejaVuSans-38" x="63.623047"/>
    </g>
   </g>
   <g id="text_23">
    <!-- 1214 -->
    <g style="fill: #38a9c4" transform="translate(283.408803 132.994257) scale(0.07 -0.07)">
     <use xlink:href="#DejaVuSans-31"/>
     <use xlink:href="#DejaVuSans-32" x="63.623047"/>
     <use xlink:href="#DejaVuSans-31" x="127.246094"/>
     <use xlink:href="#DejaVuSans-34" x="190.869141"/>
    </g>
   </g>
   <g id="text_24">
    <path d="M 193.183464 127.215173 
Q 193.678933 127.321267 193.956745 127.657048 
Q 194.235651 127.991736 194.235651 128.483923 
Q 194.235651 129.238611 193.71612 129.653142 
Q 193.196589 130.066579 192.239558 130.066579 
Q 191.919089 130.066579 191.578933 130.003142 
Q 191.238776 129.939704 190.876745 129.812829 
L 190.876745 129.146736 
Q 191.163308 129.314079 191.504558 129.399392 
Q 191.846901 129.484704 192.21987 129.484704 
Q 192.868464 129.484704 193.20862 129.228767 
Q 193.548776 128.972829 193.548776 128.483923 
Q 193.548776 128.032204 193.232683 127.778454 
Q 192.916589 127.523611 192.353308 127.523611 
L 191.758308 127.523611 
L 191.758308 126.955954 
L 192.380651 126.955954 
Q 192.889245 126.955954 193.159401 126.752517 
Q 193.429558 126.549079 193.429558 126.166267 
Q 193.429558 125.773611 193.150651 125.563611 
Q 192.872839 125.352517 192.353308 125.352517 
Q 192.068933 125.352517 191.744089 125.414861 
Q 191.419245 125.476111 191.02987 125.605173 
L 191.02987 124.990486 
Q 191.42362 124.881111 191.767058 124.826423 
Q 192.110495 124.771736 192.414558 124.771736 
Q 193.200964 124.771736 193.658151 125.129392 
Q 194.116433 125.485954 194.116433 126.094079 
Q 194.116433 126.518454 193.87362 126.810486 
Q 193.630808 127.102517 193.183464 127.215173 
z
M 196.078483 125.051736 
L 196.078483 126.138923 
L 197.373483 126.138923 
L 197.373483 126.627829 
L 196.078483 126.627829 
L 196.078483 128.705954 
Q 196.078483 129.174079 196.206452 129.307517 
Q 196.334421 129.440954 196.728171 129.440954 
L 197.373483 129.440954 
L 197.373483 129.967048 
L 196.728171 129.967048 
Q 195.999733 129.967048 195.723015 129.695798 
Q 195.446296 129.423454 195.446296 128.705954 
L 195.446296 126.627829 
L 194.984733 126.627829 
L 194.984733 126.138923 
L 195.446296 126.138923 
L 195.446296 125.051736 
L 196.078483 125.051736 
z
" style="fill: #ffffff; stroke: #000000; stroke-width: 1.4"/>
    <path d="M 193.183464 127.215173 
Q 193.678933 127.321267 193.956745 127.657048 
Q 194.235651 127.991736 194.235651 128.483923 
Q 194.235651 129.238611 193.71612 129.653142 
Q 193.196589 130.066579 192.239558 130.066579 
Q 191.919089 130.066579 191.578933 130.003142 
Q 191.238776 129.939704 190.876745 129.812829 
L 190.876745 129.146736 
Q 191.163308 129.314079 191.504558 129.399392 
Q 191.846901 129.484704 192.21987 129.484704 
Q 192.868464 129.484704 193.20862 129.228767 
Q 193.548776 128.972829 193.548776 128.483923 
Q 193.548776 128.032204 193.232683 127.778454 
Q 192.916589 127.523611 192.353308 127.523611 
L 191.758308 127.523611 
L 191.758308 126.955954 
L 192.380651 126.955954 
Q 192.889245 126.955954 193.159401 126.752517 
Q 193.429558 126.549079 193.429558 126.166267 
Q 193.429558 125.773611 193.150651 125.563611 
Q 192.872839 125.352517 192.353308 125.352517 
Q 192.068933 125.352517 191.744089 125.414861 
Q 191.419245 125.476111 191.02987 125.605173 
L 191.02987 124.990486 
Q 191.42362 124.881111 191.767058 124.826423 
Q 192.110495 124.771736 192.414558 124.771736 
Q 193.200964 124.771736 193.658151 125.129392 
Q 194.116433 125.485954 194.116433 126.094079 
Q 194.116433 126.518454 193.87362 126.810486 
Q 193.630808 127.102517 193.183464 127.215173 
z
M 196.078483 125.051736 
L 196.078483 126.138923 
L 197.373483 126.138923 
L 197.373483 126.627829 
L 196.078483 126.627829 
L 196.078483 128.705954 
Q 196.078483 129.174079 196.206452 129.307517 
Q 196.334421 129.440954 196.728171 129.440954 
L 197.373483 129.440954 
L 197.373483 129.967048 
L 196.728171 129.967048 
Q 195.999733 129.967048 195.723015 129.695798 
Q 195.446296 129.423454 195.446296 128.705954 
L 195.446296 126.627829 
L 194.984733 126.627829 
L 194.984733 126.138923 
L 195.446296 126.138923 
L 195.446296 125.051736 
L 196.078483 125.051736 
z
" style="fill: #ffffff"/>
   </g>
   <g id="text_25">
    <!-- sm -->
    <g style="fill: #38a9c4" transform="translate(270.161797 176.818984) scale(0.07 -0.07)">
     <use xlink:href="#DejaVuSans-73"/>
     <use xlink:href="#DejaVuSans-6d" x="52.099609"/>
    </g>
   </g>
   <g id="text_26">
    <!-- smallmedium -->
    <g style="fill: #38a9c4" transform="translate(272.65245 158.860435) scale(0.07 -0.07)">
     <use xlink:href="#DejaVuSans-73"/>
     <use xlink:href="#DejaVuSans-6d" x="52.099609"/>
     <use xlink:href="#DejaVuSans-61" x="149.511719"/>
     <use xlink:href="#DejaVuSans-6c" x="210.791016"/>
     <use xlink:href="#DejaVuSans-6c" x="238.574219"/>
     <use xlink:href="#DejaVuSans-6d" x="266.357422"/>
     <use xlink:href="#DejaVuSans-65" x="363.769531"/>
     <use xlink:href="#DejaVuSans-64" x="425.292969"/>
     <use xlink:href="#DejaVuSans-69" x="488.769531"/>
     <use xlink:href="#DejaVuSans-75" x="516.552734"/>
     <use xlink:href="#DejaVuSans-6d" x="579.931641"/>
    </g>
   </g>
   <g id="text_27">
    <path d="M 193.245854 123.033396 
L 195.655385 123.033396 
L 195.655385 123.614177 
L 192.415697 123.614177 
L 192.415697 123.033396 
Q 192.808354 122.626521 193.486479 121.941833 
Q 194.165697 121.256052 194.339604 121.05699 
Q 194.67101 120.685115 194.80226 120.42699 
Q 194.934604 120.168865 194.934604 119.91949 
Q 194.934604 119.512615 194.649135 119.256677 
Q 194.363666 118.999646 193.905385 118.999646 
Q 193.580541 118.999646 193.219604 119.112302 
Q 192.85976 119.224958 192.449604 119.454646 
L 192.449604 118.756833 
Q 192.866322 118.58949 193.228354 118.504177 
Q 193.591479 118.418865 193.89226 118.418865 
Q 194.685229 118.418865 195.156635 118.815896 
Q 195.628041 119.211833 195.628041 119.874646 
Q 195.628041 120.189646 195.509916 120.471833 
Q 195.392885 120.752927 195.081166 121.13574 
Q 194.995854 121.235271 194.537572 121.708865 
Q 194.080385 122.182458 193.245854 123.033396 
z
M 197.638217 118.698865 
L 197.638217 119.786052 
L 198.933217 119.786052 
L 198.933217 120.274958 
L 197.638217 120.274958 
L 197.638217 122.353083 
Q 197.638217 122.821208 197.766186 122.954646 
Q 197.894154 123.088083 198.287904 123.088083 
L 198.933217 123.088083 
L 198.933217 123.614177 
L 198.287904 123.614177 
Q 197.559467 123.614177 197.282748 123.342927 
Q 197.006029 123.070583 197.006029 122.353083 
L 197.006029 120.274958 
L 196.544467 120.274958 
L 196.544467 119.786052 
L 197.006029 119.786052 
L 197.006029 118.698865 
L 197.638217 118.698865 
z
" style="fill: #ffffff; stroke: #000000; stroke-width: 1.4"/>
    <path d="M 193.245854 123.033396 
L 195.655385 123.033396 
L 195.655385 123.614177 
L 192.415697 123.614177 
L 192.415697 123.033396 
Q 192.808354 122.626521 193.486479 121.941833 
Q 194.165697 121.256052 194.339604 121.05699 
Q 194.67101 120.685115 194.80226 120.42699 
Q 194.934604 120.168865 194.934604 119.91949 
Q 194.934604 119.512615 194.649135 119.256677 
Q 194.363666 118.999646 193.905385 118.999646 
Q 193.580541 118.999646 193.219604 119.112302 
Q 192.85976 119.224958 192.449604 119.454646 
L 192.449604 118.756833 
Q 192.866322 118.58949 193.228354 118.504177 
Q 193.591479 118.418865 193.89226 118.418865 
Q 194.685229 118.418865 195.156635 118.815896 
Q 195.628041 119.211833 195.628041 119.874646 
Q 195.628041 120.189646 195.509916 120.471833 
Q 195.392885 120.752927 195.081166 121.13574 
Q 194.995854 121.235271 194.537572 121.708865 
Q 194.080385 122.182458 193.245854 123.033396 
z
M 197.638217 118.698865 
L 197.638217 119.786052 
L 198.933217 119.786052 
L 198.933217 120.274958 
L 197.638217 120.274958 
L 197.638217 122.353083 
Q 197.638217 122.821208 197.766186 122.954646 
Q 197.894154 123.088083 198.287904 123.088083 
L 198.933217 123.088083 
L 198.933217 123.614177 
L 198.287904 123.614177 
Q 197.559467 123.614177 197.282748 123.342927 
Q 197.006029 123.070583 197.006029 122.353083 
L 197.006029 120.274958 
L 196.544467 120.274958 
L 196.544467 119.786052 
L 197.006029 119.786052 
L 197.006029 118.698865 
L 197.638217 118.698865 
z
" style="fill: #ffffff"/>
   </g>
   <g id="text_28">
    <path d="M 188.964784 124.934893 
L 187.221347 127.659424 
L 188.964784 127.659424 
L 188.964784 124.934893 
z
M 188.783222 124.33333 
L 189.651659 124.33333 
L 189.651659 127.659424 
L 190.380097 127.659424 
L 190.380097 128.233643 
L 189.651659 128.233643 
L 189.651659 129.436768 
L 188.964784 129.436768 
L 188.964784 128.233643 
L 186.661347 128.233643 
L 186.661347 127.567549 
L 188.783222 124.33333 
z
M 192.054491 124.521455 
L 192.054491 125.608643 
L 193.349491 125.608643 
L 193.349491 126.097549 
L 192.054491 126.097549 
L 192.054491 128.175674 
Q 192.054491 128.643799 192.18246 128.777236 
Q 192.310429 128.910674 192.704179 128.910674 
L 193.349491 128.910674 
L 193.349491 129.436768 
L 192.704179 129.436768 
Q 191.975741 129.436768 191.699022 129.165518 
Q 191.422304 128.893174 191.422304 128.175674 
L 191.422304 126.097549 
L 190.960741 126.097549 
L 190.960741 125.608643 
L 191.422304 125.608643 
L 191.422304 124.521455 
L 192.054491 124.521455 
z
" style="fill: #ffffff; stroke: #000000; stroke-width: 1.4"/>
    <path d="M 188.964784 124.934893 
L 187.221347 127.659424 
L 188.964784 127.659424 
L 188.964784 124.934893 
z
M 188.783222 124.33333 
L 189.651659 124.33333 
L 189.651659 127.659424 
L 190.380097 127.659424 
L 190.380097 128.233643 
L 189.651659 128.233643 
L 189.651659 129.436768 
L 188.964784 129.436768 
L 188.964784 128.233643 
L 186.661347 128.233643 
L 186.661347 127.567549 
L 188.783222 124.33333 
z
M 192.054491 124.521455 
L 192.054491 125.608643 
L 193.349491 125.608643 
L 193.349491 126.097549 
L 192.054491 126.097549 
L 192.054491 128.175674 
Q 192.054491 128.643799 192.18246 128.777236 
Q 192.310429 128.910674 192.704179 128.910674 
L 193.349491 128.910674 
L 193.349491 129.436768 
L 192.704179 129.436768 
Q 191.975741 129.436768 191.699022 129.165518 
Q 191.422304 128.893174 191.422304 128.175674 
L 191.422304 126.097549 
L 190.960741 126.097549 
L 190.960741 125.608643 
L 191.422304 125.608643 
L 191.422304 124.521455 
L 192.054491 124.521455 
z
" style="fill: #ffffff"/>
   </g>
   <g id="text_29">
    <!-- xsmall -->
    <g style="fill: #38a9c4" transform="translate(232.872376 245.760632) scale(0.07 -0.07)">
     <use xlink:href="#DejaVuSans-78"/>
     <use xlink:href="#DejaVuSans-73" x="59.179688"/>
     <use xlink:href="#DejaVuSans-6d" x="111.279297"/>
     <use xlink:href="#DejaVuSans-61" x="208.691406"/>
     <use xlink:href="#DejaVuSans-6c" x="269.970703"/>
     <use xlink:href="#DejaVuSans-6c" x="297.753906"/>
    </g>
   </g>
   <g id="text_30">
    <!-- 4x -->
    <g style="fill: #38a9c4" transform="translate(163.671937 196.319673) scale(0.07 -0.07)">
     <use xlink:href="#DejaVuSans-34"/>
     <use xlink:href="#DejaVuSans-78" x="63.623047"/>
    </g>
   </g>
   <g id="text_31">
    <!-- 1416 -->
    <g style="fill: #38a9c4" transform="translate(299.34308 137.475876) scale(0.07 -0.07)">
     <use xlink:href="#DejaVuSans-31"/>
     <use xlink:href="#DejaVuSans-34" x="63.623047"/>
     <use xlink:href="#DejaVuSans-31" x="127.246094"/>
     <use xlink:href="#DejaVuSans-36" x="190.869141"/>
    </g>
   </g>
   <g id="text_32">
    <!-- ml -->
    <g style="fill: #38a9c4" transform="translate(265.430883 169.1071) scale(0.07 -0.07)">
     <use xlink:href="#DejaVuSans-6d"/>
     <use xlink:href="#DejaVuSans-6c" x="97.412109"/>
    </g>
   </g>
   <g id="text_33">
    <path d="M 143.004965 167.322217 
L 143.633871 167.322217 
L 143.633871 172.641124 
L 143.004965 172.641124 
L 143.004965 167.322217 
z
M 147.468695 170.682217 
Q 147.468695 169.998624 147.186508 169.623467 
Q 146.905414 169.247217 146.395727 169.247217 
Q 145.890414 169.247217 145.608227 169.623467 
Q 145.326039 169.998624 145.326039 170.682217 
Q 145.326039 171.36253 145.608227 171.73878 
Q 145.890414 172.11503 146.395727 172.11503 
Q 146.905414 172.11503 147.186508 171.73878 
Q 147.468695 171.36253 147.468695 170.682217 
z
M 148.097602 172.166436 
Q 148.097602 173.143155 147.663383 173.62003 
Q 147.230258 174.096905 146.334477 174.096905 
Q 146.00307 174.096905 145.708852 174.047686 
Q 145.414633 173.998467 145.137914 173.895655 
L 145.137914 173.284249 
Q 145.414633 173.434092 145.684789 173.505186 
Q 145.954945 173.577374 146.234945 173.577374 
Q 146.854008 173.577374 147.161352 173.254717 
Q 147.468695 172.932061 147.468695 172.279092 
L 147.468695 171.967374 
Q 147.274008 172.306436 146.969945 172.47378 
Q 146.665883 172.641124 146.241508 172.641124 
Q 145.538227 172.641124 145.107289 172.105186 
Q 144.676352 171.568155 144.676352 170.682217 
Q 144.676352 169.794092 145.107289 169.258155 
Q 145.538227 168.721124 146.241508 168.721124 
Q 146.665883 168.721124 146.969945 168.888467 
Q 147.274008 169.055811 147.468695 169.39378 
L 147.468695 168.812999 
L 148.097602 168.812999 
L 148.097602 172.166436 
z
" style="fill: #ffffff; stroke: #000000; stroke-width: 1.4"/>
    <path d="M 143.004965 167.322217 
L 143.633871 167.322217 
L 143.633871 172.641124 
L 143.004965 172.641124 
L 143.004965 167.322217 
z
M 147.468695 170.682217 
Q 147.468695 169.998624 147.186508 169.623467 
Q 146.905414 169.247217 146.395727 169.247217 
Q 145.890414 169.247217 145.608227 169.623467 
Q 145.326039 169.998624 145.326039 170.682217 
Q 145.326039 171.36253 145.608227 171.73878 
Q 145.890414 172.11503 146.395727 172.11503 
Q 146.905414 172.11503 147.186508 171.73878 
Q 147.468695 171.36253 147.468695 170.682217 
z
M 148.097602 172.166436 
Q 148.097602 173.143155 147.663383 173.62003 
Q 147.230258 174.096905 146.334477 174.096905 
Q 146.00307 174.096905 145.708852 174.047686 
Q 145.414633 173.998467 145.137914 173.895655 
L 145.137914 173.284249 
Q 145.414633 173.434092 145.684789 173.505186 
Q 145.954945 173.577374 146.234945 173.577374 
Q 146.854008 173.577374 147.161352 173.254717 
Q 147.468695 172.932061 147.468695 172.279092 
L 147.468695 171.967374 
Q 147.274008 172.306436 146.969945 172.47378 
Q 146.665883 172.641124 146.241508 172.641124 
Q 145.538227 172.641124 145.107289 172.105186 
Q 144.676352 171.568155 144.676352 170.682217 
Q 144.676352 169.794092 145.107289 169.258155 
Q 145.538227 168.721124 146.241508 168.721124 
Q 146.665883 168.721124 146.969945 168.888467 
Q 147.274008 169.055811 147.468695 169.39378 
L 147.468695 168.812999 
L 148.097602 168.812999 
L 148.097602 172.166436 
z
" style="fill: #ffffff"/>
   </g>
   <g id="text_34">
    <path d="M 274.590056 74.548874 
L 277.871306 74.548874 
L 277.871306 74.843093 
L 276.018493 79.652311 
L 275.297712 79.652311 
L 277.041149 75.130749 
L 274.590056 75.130749 
L 274.590056 74.548874 
z
M 280.694138 77.228561 
Q 280.20195 77.228561 279.919763 77.492155 
Q 279.638669 77.755749 279.638669 78.216218 
Q 279.638669 78.67778 279.919763 78.941374 
Q 280.20195 79.204968 280.694138 79.204968 
Q 281.186325 79.204968 281.469606 78.94028 
Q 281.753981 78.674499 281.753981 78.216218 
Q 281.753981 77.755749 281.471794 77.492155 
Q 281.1907 77.228561 280.694138 77.228561 
z
M 280.003981 76.935436 
Q 279.559919 76.826061 279.311638 76.521999 
Q 279.06445 76.216843 279.06445 75.779343 
Q 279.06445 75.167936 279.499763 74.812468 
Q 279.936169 74.456999 280.694138 74.456999 
Q 281.456481 74.456999 281.8907 74.812468 
Q 282.324919 75.167936 282.324919 75.779343 
Q 282.324919 76.216843 282.076638 76.521999 
Q 281.82945 76.826061 281.388669 76.935436 
Q 281.887419 77.051374 282.165231 77.390436 
Q 282.444138 77.728405 282.444138 78.216218 
Q 282.444138 78.958874 281.991325 79.355905 
Q 281.538513 79.751843 280.694138 79.751843 
Q 279.850856 79.751843 279.39695 79.355905 
Q 278.944138 78.958874 278.944138 78.216218 
Q 278.944138 77.728405 279.224138 77.390436 
Q 279.505231 77.051374 280.003981 76.935436 
z
M 279.751325 75.844968 
Q 279.751325 76.240905 279.998513 76.462936 
Q 280.246794 76.684968 280.694138 76.684968 
Q 281.139294 76.684968 281.389763 76.462936 
Q 281.641325 76.240905 281.641325 75.844968 
Q 281.641325 75.447936 281.389763 75.225905 
Q 281.139294 75.003874 280.694138 75.003874 
Q 280.246794 75.003874 279.998513 75.225905 
Q 279.751325 75.447936 279.751325 75.844968 
z
" style="fill: #ffffff; stroke: #000000; stroke-width: 1.4"/>
    <path d="M 274.590056 74.548874 
L 277.871306 74.548874 
L 277.871306 74.843093 
L 276.018493 79.652311 
L 275.297712 79.652311 
L 277.041149 75.130749 
L 274.590056 75.130749 
L 274.590056 74.548874 
z
M 280.694138 77.228561 
Q 280.20195 77.228561 279.919763 77.492155 
Q 279.638669 77.755749 279.638669 78.216218 
Q 279.638669 78.67778 279.919763 78.941374 
Q 280.20195 79.204968 280.694138 79.204968 
Q 281.186325 79.204968 281.469606 78.94028 
Q 281.753981 78.674499 281.753981 78.216218 
Q 281.753981 77.755749 281.471794 77.492155 
Q 281.1907 77.228561 280.694138 77.228561 
z
M 280.003981 76.935436 
Q 279.559919 76.826061 279.311638 76.521999 
Q 279.06445 76.216843 279.06445 75.779343 
Q 279.06445 75.167936 279.499763 74.812468 
Q 279.936169 74.456999 280.694138 74.456999 
Q 281.456481 74.456999 281.8907 74.812468 
Q 282.324919 75.167936 282.324919 75.779343 
Q 282.324919 76.216843 282.076638 76.521999 
Q 281.82945 76.826061 281.388669 76.935436 
Q 281.887419 77.051374 282.165231 77.390436 
Q 282.444138 77.728405 282.444138 78.216218 
Q 282.444138 78.958874 281.991325 79.355905 
Q 281.538513 79.751843 280.694138 79.751843 
Q 279.850856 79.751843 279.39695 79.355905 
Q 278.944138 78.958874 278.944138 78.216218 
Q 278.944138 77.728405 279.224138 77.390436 
Q 279.505231 77.051374 280.003981 76.935436 
z
M 279.751325 75.844968 
Q 279.751325 76.240905 279.998513 76.462936 
Q 280.246794 76.684968 280.694138 76.684968 
Q 281.139294 76.684968 281.389763 76.462936 
Q 281.641325 76.240905 281.641325 75.844968 
Q 281.641325 75.447936 281.389763 75.225905 
Q 281.139294 75.003874 280.694138 75.003874 
Q 280.246794 75.003874 279.998513 75.225905 
Q 279.751325 75.447936 279.751325 75.844968 
z
" style="fill: #ffffff"/>
   </g>
   <g id="text_35">
    <path d="M 320.959833 193.166056 
Q 321.196083 192.741681 321.524208 192.540431 
Q 321.852333 192.339181 322.296395 192.339181 
Q 322.894677 192.339181 323.21952 192.758087 
Q 323.544364 193.1759 323.544364 193.948087 
L 323.544364 196.259181 
L 322.912177 196.259181 
L 322.912177 193.968869 
Q 322.912177 193.418712 322.716395 193.152931 
Q 322.521708 192.886056 322.122489 192.886056 
Q 321.633583 192.886056 321.349208 193.2109 
Q 321.065927 193.53465 321.065927 194.095744 
L 321.065927 196.259181 
L 320.433739 196.259181 
L 320.433739 193.968869 
Q 320.433739 193.415431 320.239052 193.150744 
Q 320.044364 192.886056 319.637489 192.886056 
Q 319.155145 192.886056 318.87077 193.211994 
Q 318.587489 193.537931 318.587489 194.095744 
L 318.587489 196.259181 
L 317.955302 196.259181 
L 317.955302 192.431056 
L 318.587489 192.431056 
L 318.587489 193.026056 
Q 318.802958 192.673869 319.103739 192.506525 
Q 319.40452 192.339181 319.817958 192.339181 
Q 320.23577 192.339181 320.527802 192.551369 
Q 320.819833 192.762462 320.959833 193.166056 
z
M 328.072899 194.187619 
L 328.072899 194.494962 
L 325.181024 194.494962 
Q 325.222587 195.14465 325.572587 195.484806 
Q 325.922587 195.824962 326.548212 195.824962 
Q 326.910243 195.824962 327.250399 195.736369 
Q 327.590556 195.647775 327.926337 195.469494 
L 327.926337 196.064494 
Q 327.587274 196.207775 327.231806 196.283244 
Q 326.876337 196.358712 326.511024 196.358712 
Q 325.594462 196.358712 325.059618 195.826056 
Q 324.524774 195.292306 324.524774 194.382306 
Q 324.524774 193.442775 325.032274 192.891525 
Q 325.539774 192.339181 326.401649 192.339181 
Q 327.173837 192.339181 327.623368 192.836837 
Q 328.072899 193.3334 328.072899 194.187619 
z
M 327.443993 194.002775 
Q 327.437431 193.487619 327.155243 193.180275 
Q 326.873056 192.871837 326.408212 192.871837 
Q 325.882118 192.871837 325.566024 193.169337 
Q 325.249931 193.466837 325.201806 194.00715 
L 327.443993 194.002775 
z
M 331.623759 193.011837 
L 331.623759 190.940275 
L 332.252665 190.940275 
L 332.252665 196.259181 
L 331.623759 196.259181 
L 331.623759 195.684962 
Q 331.42579 196.026212 331.122821 196.192462 
Q 330.820946 196.358712 330.396571 196.358712 
Q 329.703134 196.358712 329.266728 195.805275 
Q 328.831415 195.250744 328.831415 194.3484 
Q 328.831415 193.446056 329.266728 192.892619 
Q 329.703134 192.339181 330.396571 192.339181 
Q 330.820946 192.339181 331.122821 192.505431 
Q 331.42579 192.670587 331.623759 193.011837 
z
M 329.481103 194.3484 
Q 329.481103 195.041837 329.766571 195.436681 
Q 330.05204 195.831525 330.55079 195.831525 
Q 331.04954 195.831525 331.336103 195.436681 
Q 331.623759 195.041837 331.623759 194.3484 
Q 331.623759 193.654962 331.336103 193.260119 
Q 331.04954 192.865275 330.55079 192.865275 
Q 330.05204 192.865275 329.766571 193.260119 
Q 329.481103 193.654962 329.481103 194.3484 
z
M 333.548212 192.431056 
L 334.177118 192.431056 
L 334.177118 196.259181 
L 333.548212 196.259181 
L 333.548212 192.431056 
z
M 333.548212 190.940275 
L 334.177118 190.940275 
L 334.177118 191.737619 
L 333.548212 191.737619 
L 333.548212 190.940275 
z
M 335.428505 194.748712 
L 335.428505 192.431056 
L 336.057411 192.431056 
L 336.057411 194.72465 
Q 336.057411 195.268244 336.268505 195.540587 
Q 336.480692 195.811837 336.905067 195.811837 
Q 337.413661 195.811837 337.708974 195.486994 
Q 338.00538 195.16215 338.00538 194.601056 
L 338.00538 192.431056 
L 338.634286 192.431056 
L 338.634286 196.259181 
L 338.00538 196.259181 
L 338.00538 195.670744 
Q 337.776786 196.01965 337.473817 196.189181 
Q 337.171942 196.358712 336.77163 196.358712 
Q 336.112099 196.358712 335.769755 195.948556 
Q 335.428505 195.5384 335.428505 194.748712 
z
M 337.011161 192.339181 
L 337.011161 192.339181 
z
M 342.910028 193.166056 
Q 343.146278 192.741681 343.474403 192.540431 
Q 343.802528 192.339181 344.246591 192.339181 
Q 344.844872 192.339181 345.169716 192.758087 
Q 345.49456 193.1759 345.49456 193.948087 
L 345.49456 196.259181 
L 344.862372 196.259181 
L 344.862372 193.968869 
Q 344.862372 193.418712 344.666591 193.152931 
Q 344.471903 192.886056 344.072685 192.886056 
Q 343.583778 192.886056 343.299403 193.2109 
Q 343.016122 193.53465 343.016122 194.095744 
L 343.016122 196.259181 
L 342.383935 196.259181 
L 342.383935 193.968869 
Q 342.383935 193.415431 342.189247 193.150744 
Q 341.99456 192.886056 341.587685 192.886056 
Q 341.105341 192.886056 340.820966 193.211994 
Q 340.537685 193.537931 340.537685 194.095744 
L 340.537685 196.259181 
L 339.905497 196.259181 
L 339.905497 192.431056 
L 340.537685 192.431056 
L 340.537685 193.026056 
Q 340.753153 192.673869 341.053935 192.506525 
Q 341.354716 192.339181 341.768153 192.339181 
Q 342.185966 192.339181 342.477997 192.551369 
Q 342.770028 192.762462 342.910028 193.166056 
z
M 349.188563 192.543712 
L 349.188563 193.138712 
Q 348.922782 193.001994 348.635126 192.934181 
Q 348.348563 192.865275 348.040126 192.865275 
Q 347.572001 192.865275 347.337938 193.008556 
Q 347.103876 193.151837 347.103876 193.439494 
Q 347.103876 193.658244 347.27122 193.782931 
Q 347.438563 193.907619 347.94497 194.020275 
L 348.160438 194.0684 
Q 348.829813 194.211681 349.112001 194.473087 
Q 349.394188 194.734494 349.394188 195.202619 
Q 349.394188 195.736369 348.972001 196.048087 
Q 348.549813 196.358712 347.811532 196.358712 
Q 347.504188 196.358712 347.170595 196.298556 
Q 346.837001 196.2384 346.468407 196.119181 
L 346.468407 195.469494 
Q 346.817313 195.651056 347.155282 195.741837 
Q 347.493251 195.831525 347.825751 195.831525 
Q 348.269813 195.831525 348.508251 195.679494 
Q 348.747782 195.527462 348.747782 195.250744 
Q 348.747782 194.994806 348.57497 194.858087 
Q 348.403251 194.721369 347.818095 194.594494 
L 347.599345 194.543087 
Q 347.015282 194.420587 346.75497 194.165744 
Q 346.495751 193.9109 346.495751 193.466837 
Q 346.495751 192.926525 346.878563 192.6334 
Q 347.261376 192.339181 347.965751 192.339181 
Q 348.313563 192.339181 348.620907 192.390587 
Q 348.929345 192.4409 349.188563 192.543712 
z
" style="fill: #ffffff; stroke: #000000; stroke-width: 1.4"/>
    <path d="M 320.959833 193.166056 
Q 321.196083 192.741681 321.524208 192.540431 
Q 321.852333 192.339181 322.296395 192.339181 
Q 322.894677 192.339181 323.21952 192.758087 
Q 323.544364 193.1759 323.544364 193.948087 
L 323.544364 196.259181 
L 322.912177 196.259181 
L 322.912177 193.968869 
Q 322.912177 193.418712 322.716395 193.152931 
Q 322.521708 192.886056 322.122489 192.886056 
Q 321.633583 192.886056 321.349208 193.2109 
Q 321.065927 193.53465 321.065927 194.095744 
L 321.065927 196.259181 
L 320.433739 196.259181 
L 320.433739 193.968869 
Q 320.433739 193.415431 320.239052 193.150744 
Q 320.044364 192.886056 319.637489 192.886056 
Q 319.155145 192.886056 318.87077 193.211994 
Q 318.587489 193.537931 318.587489 194.095744 
L 318.587489 196.259181 
L 317.955302 196.259181 
L 317.955302 192.431056 
L 318.587489 192.431056 
L 318.587489 193.026056 
Q 318.802958 192.673869 319.103739 192.506525 
Q 319.40452 192.339181 319.817958 192.339181 
Q 320.23577 192.339181 320.527802 192.551369 
Q 320.819833 192.762462 320.959833 193.166056 
z
M 328.072899 194.187619 
L 328.072899 194.494962 
L 325.181024 194.494962 
Q 325.222587 195.14465 325.572587 195.484806 
Q 325.922587 195.824962 326.548212 195.824962 
Q 326.910243 195.824962 327.250399 195.736369 
Q 327.590556 195.647775 327.926337 195.469494 
L 327.926337 196.064494 
Q 327.587274 196.207775 327.231806 196.283244 
Q 326.876337 196.358712 326.511024 196.358712 
Q 325.594462 196.358712 325.059618 195.826056 
Q 324.524774 195.292306 324.524774 194.382306 
Q 324.524774 193.442775 325.032274 192.891525 
Q 325.539774 192.339181 326.401649 192.339181 
Q 327.173837 192.339181 327.623368 192.836837 
Q 328.072899 193.3334 328.072899 194.187619 
z
M 327.443993 194.002775 
Q 327.437431 193.487619 327.155243 193.180275 
Q 326.873056 192.871837 326.408212 192.871837 
Q 325.882118 192.871837 325.566024 193.169337 
Q 325.249931 193.466837 325.201806 194.00715 
L 327.443993 194.002775 
z
M 331.623759 193.011837 
L 331.623759 190.940275 
L 332.252665 190.940275 
L 332.252665 196.259181 
L 331.623759 196.259181 
L 331.623759 195.684962 
Q 331.42579 196.026212 331.122821 196.192462 
Q 330.820946 196.358712 330.396571 196.358712 
Q 329.703134 196.358712 329.266728 195.805275 
Q 328.831415 195.250744 328.831415 194.3484 
Q 328.831415 193.446056 329.266728 192.892619 
Q 329.703134 192.339181 330.396571 192.339181 
Q 330.820946 192.339181 331.122821 192.505431 
Q 331.42579 192.670587 331.623759 193.011837 
z
M 329.481103 194.3484 
Q 329.481103 195.041837 329.766571 195.436681 
Q 330.05204 195.831525 330.55079 195.831525 
Q 331.04954 195.831525 331.336103 195.436681 
Q 331.623759 195.041837 331.623759 194.3484 
Q 331.623759 193.654962 331.336103 193.260119 
Q 331.04954 192.865275 330.55079 192.865275 
Q 330.05204 192.865275 329.766571 193.260119 
Q 329.481103 193.654962 329.481103 194.3484 
z
M 333.548212 192.431056 
L 334.177118 192.431056 
L 334.177118 196.259181 
L 333.548212 196.259181 
L 333.548212 192.431056 
z
M 333.548212 190.940275 
L 334.177118 190.940275 
L 334.177118 191.737619 
L 333.548212 191.737619 
L 333.548212 190.940275 
z
M 335.428505 194.748712 
L 335.428505 192.431056 
L 336.057411 192.431056 
L 336.057411 194.72465 
Q 336.057411 195.268244 336.268505 195.540587 
Q 336.480692 195.811837 336.905067 195.811837 
Q 337.413661 195.811837 337.708974 195.486994 
Q 338.00538 195.16215 338.00538 194.601056 
L 338.00538 192.431056 
L 338.634286 192.431056 
L 338.634286 196.259181 
L 338.00538 196.259181 
L 338.00538 195.670744 
Q 337.776786 196.01965 337.473817 196.189181 
Q 337.171942 196.358712 336.77163 196.358712 
Q 336.112099 196.358712 335.769755 195.948556 
Q 335.428505 195.5384 335.428505 194.748712 
z
M 337.011161 192.339181 
L 337.011161 192.339181 
z
M 342.910028 193.166056 
Q 343.146278 192.741681 343.474403 192.540431 
Q 343.802528 192.339181 344.246591 192.339181 
Q 344.844872 192.339181 345.169716 192.758087 
Q 345.49456 193.1759 345.49456 193.948087 
L 345.49456 196.259181 
L 344.862372 196.259181 
L 344.862372 193.968869 
Q 344.862372 193.418712 344.666591 193.152931 
Q 344.471903 192.886056 344.072685 192.886056 
Q 343.583778 192.886056 343.299403 193.2109 
Q 343.016122 193.53465 343.016122 194.095744 
L 343.016122 196.259181 
L 342.383935 196.259181 
L 342.383935 193.968869 
Q 342.383935 193.415431 342.189247 193.150744 
Q 341.99456 192.886056 341.587685 192.886056 
Q 341.105341 192.886056 340.820966 193.211994 
Q 340.537685 193.537931 340.537685 194.095744 
L 340.537685 196.259181 
L 339.905497 196.259181 
L 339.905497 192.431056 
L 340.537685 192.431056 
L 340.537685 193.026056 
Q 340.753153 192.673869 341.053935 192.506525 
Q 341.354716 192.339181 341.768153 192.339181 
Q 342.185966 192.339181 342.477997 192.551369 
Q 342.770028 192.762462 342.910028 193.166056 
z
M 349.188563 192.543712 
L 349.188563 193.138712 
Q 348.922782 193.001994 348.635126 192.934181 
Q 348.348563 192.865275 348.040126 192.865275 
Q 347.572001 192.865275 347.337938 193.008556 
Q 347.103876 193.151837 347.103876 193.439494 
Q 347.103876 193.658244 347.27122 193.782931 
Q 347.438563 193.907619 347.94497 194.020275 
L 348.160438 194.0684 
Q 348.829813 194.211681 349.112001 194.473087 
Q 349.394188 194.734494 349.394188 195.202619 
Q 349.394188 195.736369 348.972001 196.048087 
Q 348.549813 196.358712 347.811532 196.358712 
Q 347.504188 196.358712 347.170595 196.298556 
Q 346.837001 196.2384 346.468407 196.119181 
L 346.468407 195.469494 
Q 346.817313 195.651056 347.155282 195.741837 
Q 347.493251 195.831525 347.825751 195.831525 
Q 348.269813 195.831525 348.508251 195.679494 
Q 348.747782 195.527462 348.747782 195.250744 
Q 348.747782 194.994806 348.57497 194.858087 
Q 348.403251 194.721369 347.818095 194.594494 
L 347.599345 194.543087 
Q 347.015282 194.420587 346.75497 194.165744 
Q 346.495751 193.9109 346.495751 193.466837 
Q 346.495751 192.926525 346.878563 192.6334 
Q 347.261376 192.339181 347.965751 192.339181 
Q 348.313563 192.339181 348.620907 192.390587 
Q 348.929345 192.4409 349.188563 192.543712 
z
" style="fill: #ffffff"/>
   </g>
   <g id="text_36">
    <!-- lxl -->
    <g style="fill: #38a9c4" transform="translate(284.340621 176.273846) scale(0.07 -0.07)">
     <use xlink:href="#DejaVuSans-6c"/>
     <use xlink:href="#DejaVuSans-78" x="27.783203"/>
     <use xlink:href="#DejaVuSans-6c" x="86.962891"/>
    </g>
   </g>
   <g id="text_37">
    <!-- 5x -->
    <g style="fill: #38a9c4" transform="translate(151.740285 206.497474) scale(0.07 -0.07)">
     <defs>
      <path id="DejaVuSans-35" d="M 691 4666 
L 3169 4666 
L 3169 4134 
L 1269 4134 
L 1269 2991 
Q 1406 3038 1543 3061 
Q 1681 3084 1819 3084 
Q 2600 3084 3056 2656 
Q 3513 2228 3513 1497 
Q 3513 744 3044 326 
Q 2575 -91 1722 -91 
Q 1428 -91 1123 -41 
Q 819 9 494 109 
L 494 744 
Q 775 591 1075 516 
Q 1375 441 1709 441 
Q 2250 441 2565 725 
Q 2881 1009 2881 1497 
Q 2881 1984 2565 2268 
Q 2250 2553 1709 2553 
Q 1456 2553 1204 2497 
Q 953 2441 691 2322 
L 691 4666 
z
" transform="scale(0.015625)"/>
     </defs>
     <use xlink:href="#DejaVuSans-35"/>
     <use xlink:href="#DejaVuSans-78" x="63.623047"/>
    </g>
   </g>
   <g id="text_38">
    <!-- 1618 -->
    <g style="fill: #38a9c4" transform="translate(301.727615 138.351187) scale(0.07 -0.07)">
     <use xlink:href="#DejaVuSans-31"/>
     <use xlink:href="#DejaVuSans-36" x="63.623047"/>
     <use xlink:href="#DejaVuSans-31" x="127.246094"/>
     <use xlink:href="#DejaVuSans-38" x="190.869141"/>
    </g>
   </g>
   <g id="text_39">
    <!-- 4xl -->
    <g style="fill: #38a9c4" transform="translate(165.32531 211.992722) scale(0.07 -0.07)">
     <use xlink:href="#DejaVuSans-34"/>
     <use xlink:href="#DejaVuSans-78" x="63.623047"/>
     <use xlink:href="#DejaVuSans-6c" x="122.802734"/>
    </g>
   </g>
   <g id="text_40">
    <path d="M 231.373158 43.109624 
L 232.500814 43.109624 
L 232.500814 39.215874 
L 231.273626 39.461967 
L 231.273626 38.833061 
L 232.494251 38.586967 
L 233.184408 38.586967 
L 233.184408 43.109624 
L 234.312064 43.109624 
L 234.312064 43.690405 
L 231.373158 43.690405 
L 231.373158 43.109624 
z
M 236.301458 43.109624 
L 238.71099 43.109624 
L 238.71099 43.690405 
L 235.471302 43.690405 
L 235.471302 43.109624 
Q 235.863958 42.702749 236.542083 42.018061 
Q 237.221302 41.33228 237.395208 41.133217 
Q 237.726615 40.761342 237.857865 40.503217 
Q 237.990208 40.245092 237.990208 39.995717 
Q 237.990208 39.588842 237.70474 39.332905 
Q 237.419271 39.075874 236.96099 39.075874 
Q 236.636146 39.075874 236.275208 39.18853 
Q 235.915365 39.301186 235.505208 39.530874 
L 235.505208 38.833061 
Q 235.921927 38.665717 236.283958 38.580405 
Q 236.647083 38.495092 236.947865 38.495092 
Q 237.740833 38.495092 238.21224 38.892124 
Q 238.683646 39.288061 238.683646 39.950874 
Q 238.683646 40.265874 238.565521 40.548061 
Q 238.44849 40.829155 238.136771 41.211967 
Q 238.051458 41.311499 237.593177 41.785092 
Q 237.13599 42.258686 236.301458 43.109624 
z
M 240.280384 43.109624 
L 241.40804 43.109624 
L 241.40804 39.215874 
L 240.180853 39.461967 
L 240.180853 38.833061 
L 241.401478 38.586967 
L 242.091634 38.586967 
L 242.091634 43.109624 
L 243.21929 43.109624 
L 243.21929 43.690405 
L 240.280384 43.690405 
L 240.280384 43.109624 
z
M 246.090248 41.266655 
Q 245.59806 41.266655 245.315873 41.530249 
Q 245.034779 41.793842 245.034779 42.254311 
Q 245.034779 42.715874 245.315873 42.979467 
Q 245.59806 43.243061 246.090248 43.243061 
Q 246.582435 43.243061 246.865716 42.978374 
Q 247.150091 42.712592 247.150091 42.254311 
Q 247.150091 41.793842 246.867904 41.530249 
Q 246.58681 41.266655 246.090248 41.266655 
z
M 245.400091 40.97353 
Q 244.956029 40.864155 244.707748 40.560092 
Q 244.46056 40.254936 244.46056 39.817436 
Q 244.46056 39.20603 244.895873 38.850561 
Q 245.332279 38.495092 246.090248 38.495092 
Q 246.852591 38.495092 247.28681 38.850561 
Q 247.721029 39.20603 247.721029 39.817436 
Q 247.721029 40.254936 247.472748 40.560092 
Q 247.22556 40.864155 246.784779 40.97353 
Q 247.283529 41.089467 247.561341 41.42853 
Q 247.840248 41.766499 247.840248 42.254311 
Q 247.840248 42.996967 247.387435 43.393999 
Q 246.934623 43.789936 246.090248 43.789936 
Q 245.246966 43.789936 244.79306 43.393999 
Q 244.340248 42.996967 244.340248 42.254311 
Q 244.340248 41.766499 244.620248 41.42853 
Q 244.901341 41.089467 245.400091 40.97353 
z
M 245.147435 39.883061 
Q 245.147435 40.278999 245.394623 40.50103 
Q 245.642904 40.723061 246.090248 40.723061 
Q 246.535404 40.723061 246.785873 40.50103 
Q 247.037435 40.278999 247.037435 39.883061 
Q 247.037435 39.48603 246.785873 39.263999 
Q 246.535404 39.041967 246.090248 39.041967 
Q 245.642904 39.041967 245.394623 39.263999 
Q 245.147435 39.48603 245.147435 39.883061 
z
" style="fill: #ffffff; stroke: #000000; stroke-width: 1.4"/>
    <path d="M 231.373158 43.109624 
L 232.500814 43.109624 
L 232.500814 39.215874 
L 231.273626 39.461967 
L 231.273626 38.833061 
L 232.494251 38.586967 
L 233.184408 38.586967 
L 233.184408 43.109624 
L 234.312064 43.109624 
L 234.312064 43.690405 
L 231.373158 43.690405 
L 231.373158 43.109624 
z
M 236.301458 43.109624 
L 238.71099 43.109624 
L 238.71099 43.690405 
L 235.471302 43.690405 
L 235.471302 43.109624 
Q 235.863958 42.702749 236.542083 42.018061 
Q 237.221302 41.33228 237.395208 41.133217 
Q 237.726615 40.761342 237.857865 40.503217 
Q 237.990208 40.245092 237.990208 39.995717 
Q 237.990208 39.588842 237.70474 39.332905 
Q 237.419271 39.075874 236.96099 39.075874 
Q 236.636146 39.075874 236.275208 39.18853 
Q 235.915365 39.301186 235.505208 39.530874 
L 235.505208 38.833061 
Q 235.921927 38.665717 236.283958 38.580405 
Q 236.647083 38.495092 236.947865 38.495092 
Q 237.740833 38.495092 238.21224 38.892124 
Q 238.683646 39.288061 238.683646 39.950874 
Q 238.683646 40.265874 238.565521 40.548061 
Q 238.44849 40.829155 238.136771 41.211967 
Q 238.051458 41.311499 237.593177 41.785092 
Q 237.13599 42.258686 236.301458 43.109624 
z
M 240.280384 43.109624 
L 241.40804 43.109624 
L 241.40804 39.215874 
L 240.180853 39.461967 
L 240.180853 38.833061 
L 241.401478 38.586967 
L 242.091634 38.586967 
L 242.091634 43.109624 
L 243.21929 43.109624 
L 243.21929 43.690405 
L 240.280384 43.690405 
L 240.280384 43.109624 
z
M 246.090248 41.266655 
Q 245.59806 41.266655 245.315873 41.530249 
Q 245.034779 41.793842 245.034779 42.254311 
Q 245.034779 42.715874 245.315873 42.979467 
Q 245.59806 43.243061 246.090248 43.243061 
Q 246.582435 43.243061 246.865716 42.978374 
Q 247.150091 42.712592 247.150091 42.254311 
Q 247.150091 41.793842 246.867904 41.530249 
Q 246.58681 41.266655 246.090248 41.266655 
z
M 245.400091 40.97353 
Q 244.956029 40.864155 244.707748 40.560092 
Q 244.46056 40.254936 244.46056 39.817436 
Q 244.46056 39.20603 244.895873 38.850561 
Q 245.332279 38.495092 246.090248 38.495092 
Q 246.852591 38.495092 247.28681 38.850561 
Q 247.721029 39.20603 247.721029 39.817436 
Q 247.721029 40.254936 247.472748 40.560092 
Q 247.22556 40.864155 246.784779 40.97353 
Q 247.283529 41.089467 247.561341 41.42853 
Q 247.840248 41.766499 247.840248 42.254311 
Q 247.840248 42.996967 247.387435 43.393999 
Q 246.934623 43.789936 246.090248 43.789936 
Q 245.246966 43.789936 244.79306 43.393999 
Q 244.340248 42.996967 244.340248 42.254311 
Q 244.340248 41.766499 244.620248 41.42853 
Q 244.901341 41.089467 245.400091 40.97353 
z
M 245.147435 39.883061 
Q 245.147435 40.278999 245.394623 40.50103 
Q 245.642904 40.723061 246.090248 40.723061 
Q 246.535404 40.723061 246.785873 40.50103 
Q 247.037435 40.278999 247.037435 39.883061 
Q 247.037435 39.48603 246.785873 39.263999 
Q 246.535404 39.041967 246.090248 39.041967 
Q 245.642904 39.041967 245.394623 39.263999 
Q 245.147435 39.48603 245.147435 39.883061 
z
" style="fill: #ffffff"/>
   </g>
   <g id="text_41">
    <!-- mediumlarge -->
    <g style="fill: #38a9c4" transform="translate(283.656324 153.729202) scale(0.07 -0.07)">
     <use xlink:href="#DejaVuSans-6d"/>
     <use xlink:href="#DejaVuSans-65" x="97.412109"/>
     <use xlink:href="#DejaVuSans-64" x="158.935547"/>
     <use xlink:href="#DejaVuSans-69" x="222.412109"/>
     <use xlink:href="#DejaVuSans-75" x="250.195312"/>
     <use xlink:href="#DejaVuSans-6d" x="313.574219"/>
     <use xlink:href="#DejaVuSans-6c" x="410.986328"/>
     <use xlink:href="#DejaVuSans-61" x="438.769531"/>
     <use xlink:href="#DejaVuSans-72" x="500.048828"/>
     <use xlink:href="#DejaVuSans-67" x="539.412109"/>
     <use xlink:href="#DejaVuSans-65" x="602.888672"/>
    </g>
   </g>
   <g id="text_42">
    <path d="M 232.363303 269.761442 
L 230.978616 271.624099 
L 232.434397 273.589567 
L 231.692835 273.589567 
L 230.578303 272.085661 
L 229.464866 273.589567 
L 228.72221 273.589567 
L 230.20971 271.586911 
L 228.849085 269.761442 
L 229.590647 269.761442 
L 230.605647 271.125349 
L 231.620647 269.761442 
L 232.363303 269.761442 
z
M 233.945413 268.674255 
L 233.945413 269.761442 
L 235.240413 269.761442 
L 235.240413 270.250349 
L 233.945413 270.250349 
L 233.945413 272.328474 
Q 233.945413 272.796599 234.073381 272.930036 
Q 234.20135 273.063474 234.5951 273.063474 
L 235.240413 273.063474 
L 235.240413 273.589567 
L 234.5951 273.589567 
Q 233.866663 273.589567 233.589944 273.318317 
Q 233.313225 273.045974 233.313225 272.328474 
L 233.313225 270.250349 
L 232.851663 270.250349 
L 232.851663 269.761442 
L 233.313225 269.761442 
L 233.313225 268.674255 
L 233.945413 268.674255 
z
M 238.285823 270.348786 
Q 238.179729 270.287536 238.055042 270.259099 
Q 237.930354 270.229567 237.78051 270.229567 
Q 237.24676 270.229567 236.961292 270.576286 
Q 236.675823 270.923005 236.675823 271.572692 
L 236.675823 273.589567 
L 236.043635 273.589567 
L 236.043635 269.761442 
L 236.675823 269.761442 
L 236.675823 270.356442 
Q 236.874885 270.007536 237.192073 269.839099 
Q 237.510354 269.669567 237.965354 269.669567 
Q 238.029885 269.669567 238.108635 269.678317 
Q 238.187385 269.685974 238.282542 269.703474 
L 238.285823 270.348786 
z
M 240.685784 271.665661 
Q 239.92344 271.665661 239.629221 271.839567 
Q 239.335003 272.013474 239.335003 272.434567 
Q 239.335003 272.769255 239.55594 272.96613 
Q 239.776878 273.161911 240.155315 273.161911 
Q 240.679221 273.161911 240.995315 272.79113 
Q 241.311409 272.420349 241.311409 271.805661 
L 241.311409 271.665661 
L 240.685784 271.665661 
z
M 241.940315 271.405349 
L 241.940315 273.589567 
L 241.311409 273.589567 
L 241.311409 273.008786 
Q 241.09594 273.356599 240.774378 273.522849 
Q 240.452815 273.689099 239.987971 273.689099 
Q 239.400628 273.689099 239.052815 273.358786 
Q 238.706096 273.028474 238.706096 272.475036 
Q 238.706096 271.829724 239.138128 271.501599 
Q 239.571253 271.173474 240.428753 271.173474 
L 241.311409 271.173474 
L 241.311409 271.11113 
Q 241.311409 270.676911 241.02594 270.439567 
Q 240.740471 270.202224 240.224221 270.202224 
Q 239.896096 270.202224 239.584378 270.280974 
Q 239.273753 270.359724 238.98719 270.517224 
L 238.98719 269.935349 
Q 239.331721 269.801911 239.656565 269.736286 
Q 239.981409 269.669567 240.288753 269.669567 
Q 241.120003 269.669567 241.530159 270.100505 
Q 241.940315 270.530349 241.940315 271.405349 
z
" style="fill: #ffffff; stroke: #000000; stroke-width: 1.4"/>
    <path d="M 232.363303 269.761442 
L 230.978616 271.624099 
L 232.434397 273.589567 
L 231.692835 273.589567 
L 230.578303 272.085661 
L 229.464866 273.589567 
L 228.72221 273.589567 
L 230.20971 271.586911 
L 228.849085 269.761442 
L 229.590647 269.761442 
L 230.605647 271.125349 
L 231.620647 269.761442 
L 232.363303 269.761442 
z
M 233.945413 268.674255 
L 233.945413 269.761442 
L 235.240413 269.761442 
L 235.240413 270.250349 
L 233.945413 270.250349 
L 233.945413 272.328474 
Q 233.945413 272.796599 234.073381 272.930036 
Q 234.20135 273.063474 234.5951 273.063474 
L 235.240413 273.063474 
L 235.240413 273.589567 
L 234.5951 273.589567 
Q 233.866663 273.589567 233.589944 273.318317 
Q 233.313225 273.045974 233.313225 272.328474 
L 233.313225 270.250349 
L 232.851663 270.250349 
L 232.851663 269.761442 
L 233.313225 269.761442 
L 233.313225 268.674255 
L 233.945413 268.674255 
z
M 238.285823 270.348786 
Q 238.179729 270.287536 238.055042 270.259099 
Q 237.930354 270.229567 237.78051 270.229567 
Q 237.24676 270.229567 236.961292 270.576286 
Q 236.675823 270.923005 236.675823 271.572692 
L 236.675823 273.589567 
L 236.043635 273.589567 
L 236.043635 269.761442 
L 236.675823 269.761442 
L 236.675823 270.356442 
Q 236.874885 270.007536 237.192073 269.839099 
Q 237.510354 269.669567 237.965354 269.669567 
Q 238.029885 269.669567 238.108635 269.678317 
Q 238.187385 269.685974 238.282542 269.703474 
L 238.285823 270.348786 
z
M 240.685784 271.665661 
Q 239.92344 271.665661 239.629221 271.839567 
Q 239.335003 272.013474 239.335003 272.434567 
Q 239.335003 272.769255 239.55594 272.96613 
Q 239.776878 273.161911 240.155315 273.161911 
Q 240.679221 273.161911 240.995315 272.79113 
Q 241.311409 272.420349 241.311409 271.805661 
L 241.311409 271.665661 
L 240.685784 271.665661 
z
M 241.940315 271.405349 
L 241.940315 273.589567 
L 241.311409 273.589567 
L 241.311409 273.008786 
Q 241.09594 273.356599 240.774378 273.522849 
Q 240.452815 273.689099 239.987971 273.689099 
Q 239.400628 273.689099 239.052815 273.358786 
Q 238.706096 273.028474 238.706096 272.475036 
Q 238.706096 271.829724 239.138128 271.501599 
Q 239.571253 271.173474 240.428753 271.173474 
L 241.311409 271.173474 
L 241.311409 271.11113 
Q 241.311409 270.676911 241.02594 270.439567 
Q 240.740471 270.202224 240.224221 270.202224 
Q 239.896096 270.202224 239.584378 270.280974 
Q 239.273753 270.359724 238.98719 270.517224 
L 238.98719 269.935349 
Q 239.331721 269.801911 239.656565 269.736286 
Q 239.981409 269.669567 240.288753 269.669567 
Q 241.120003 269.669567 241.530159 270.100505 
Q 241.940315 270.530349 241.940315 271.405349 
z
" style="fill: #ffffff"/>
   </g>
   <g id="text_43">
    <!-- 1820 -->
    <g style="fill: #38a9c4" transform="translate(320.579715 147.851426) scale(0.07 -0.07)">
     <use xlink:href="#DejaVuSans-31"/>
     <use xlink:href="#DejaVuSans-38" x="63.623047"/>
     <use xlink:href="#DejaVuSans-32" x="127.246094"/>
     <use xlink:href="#DejaVuSans-30" x="190.869141"/>
    </g>
   </g>
  </g>
 </g>
</svg>
